<svg xmlns="http://www.w3.org/2000/svg" width="617.981" height="406.408" viewBox="0 0 617.981 406.408">
  <g id="Group_11338" data-name="Group 11338" transform="translate(-36 -46.064)">
    <g id="Group_11326" data-name="Group 11326" transform="translate(36 92.064)">
      <path id="Path_2371" data-name="Path 2371" d="M645.22,133.945V295.592a36.5,36.5,0,0,1-36.5,36.5H72.5a36.5,36.5,0,0,1-36.5-36.5V133.945a36.473,36.473,0,0,1,36.5-36.5H608.72A36.5,36.5,0,0,1,645.22,133.945Z" transform="translate(-36 -97.444)" fill="#65a8df" opacity="0.68"/>
      <path id="Path_2372" data-name="Path 2372" d="M152.273,97.444C117.076,166.292,59.448,176.886,36,178.233V133.945a36.5,36.5,0,0,1,36.5-36.5Z" transform="translate(-36 -97.444)" fill="#77bbe8"/>
      <path id="Path_2373" data-name="Path 2373" d="M230.615,97.444c-5.18,25.255-38.065,60.2-88.829,54.169-44.175-5.249-66.553-37.57-74.879-53.091a36.478,36.478,0,0,1,8.83-1.078Z" transform="translate(-39.236 -97.444)" fill="#6697d1" opacity="0.56"/>
      <path id="Path_2374" data-name="Path 2374" d="M669.552,133.945V205c-55.794-11.933-115.786-61.113-146.873-71.925-39.978-13.9-79.086.869-149.481,8.691-44.871,4.989-83.032-23.212-104.8-44.323H633.052A36.5,36.5,0,0,1,669.552,133.945Z" transform="translate(-60.332 -97.444)" fill="#77bbe8"/>
      <path id="Path_2375" data-name="Path 2375" d="M645.22,268.4V310.54a36.5,36.5,0,0,1-36.5,36.5H72.5A36.5,36.5,0,0,1,36,310.54V240.206c22.735,4.058,66.5,14.1,149.481,36.44C368.794,326,557.053,270.841,645.22,268.4Z" transform="translate(-36 -112.391)" fill="#6697d1" opacity="0.56"/>
    </g>
    <path id="Path_2376" data-name="Path 2376" d="M628.385,245.686H590.218V181.435l9.6-.056-5.669-20.809h-.2v-5.336h-3.735V131.289l.081.054v-5.966l7.536,5.05c9.473,6.352,22.109,1.3,30.174-6.753l-118.984-77.3L390.84,127.037l-.748.487a23.874,23.874,0,0,0,30.166,2.946l6.693-4.485v29.248h-3.2v5.336l-.254,2.692-5.614,19.184,9.07-.054v.021H426.9l.056,8.906v54.63H408.43a32.68,32.68,0,0,0,6.8-4.117,28.088,28.088,0,0,0,11.055-22.023c0-9.795-5.337-18.441-13.5-23.734a20.246,20.246,0,1,0-39.708-5.579,20.133,20.133,0,0,0,1.078,6.466c-7.422,5.345-12.194,13.583-12.194,22.848,0,11.456,7.277,21.363,17.86,26.139h-7.8l-49.182,95.331,361.175-.264ZM509.083,70.957l-.2.133.136-.09.052-.035v-.018Z" transform="translate(-30.033 -0.033)" fill="#6697d1" opacity="0.56"/>
    <g id="Group_11328" data-name="Group 11328" transform="translate(279.554 46.064)">
      <path id="Path_2377" data-name="Path 2377" d="M669.212,356.535l-52.406-92.108H473.46v.265H360.443L308.037,356.8H503.788v-.265Z" transform="translate(-308.037 -68.927)" fill="#ffa45e"/>
      <path id="Path_2378" data-name="Path 2378" d="M646.975,342.25,611.4,273.3H466.688v.216H372l-37.02,70.041Z" transform="translate(-310.857 -69.856)" fill="#ffdec8"/>
      <g id="Group_11327" data-name="Group 11327" transform="translate(70.477)">
        <path id="Path_2379" data-name="Path 2379" d="M591.192,273.055H427.925V123.661l82.167-54.422,81.1,54.422Z" transform="translate(-391.066 -48.49)" fill="#ffb397"/>
        <path id="Path_2380" data-name="Path 2380" d="M427.944,206.6l163-9.813v-4.056l-163.078.914Z" transform="translate(-391.06 -61.421)" fill="#efa189"/>
        <path id="Path_2381" data-name="Path 2381" d="M624.673,123.36a23.876,23.876,0,0,1-30.174,2.946L505.732,66.827v.017l-.053.035L416.921,126.35a23.875,23.875,0,0,1-30.165-2.946l.747-.487L505.688,46.064Z" transform="translate(-386.756 -46.064)" fill="#ff6e61"/>
        <path id="Path_2382" data-name="Path 2382" d="M424.2,169.358H594.066l5.669,20.809-181.941,1.067Z" transform="translate(-390.006 -58.973)" fill="#ff6e61"/>
        <path id="Rectangle_3550" data-name="Rectangle 3550" d="M4.875,0H37.142a4.875,4.875,0,0,1,4.875,4.875V64.026a0,0,0,0,1,0,0H0a0,0,0,0,1,0,0V4.875A4.875,4.875,0,0,1,4.875,0Z" transform="translate(54.599 160.539)" fill="#fff"/>
        <rect id="Rectangle_3551" data-name="Rectangle 3551" width="76.298" height="29.612" transform="translate(112.623 157.071)" fill="#fff"/>
        <path id="Path_2383" data-name="Path 2383" d="M584.682,215.062H515.587a3.335,3.335,0,0,1-3.335-3.335h0a3.335,3.335,0,0,1,3.335-3.335h69.095a3.335,3.335,0,0,1,3.335,3.335h0A3.335,3.335,0,0,1,584.682,215.062Z" transform="translate(-399.896 -63.06)" fill="#c48d7c"/>
        <path id="Path_2384" data-name="Path 2384" d="M489.818,218.371H446.4a13.405,13.405,0,0,1,13.405-13.405h16.607a13.406,13.406,0,0,1,13.405,13.405Z" transform="translate(-393.001 -62.701)" fill="#c48d7c"/>
        <rect id="Rectangle_3552" data-name="Rectangle 3552" width="28.412" height="35.214" transform="translate(104.22 59.431)" fill="#fff"/>
        <rect id="Rectangle_3553" data-name="Rectangle 3553" width="24.205" height="30.799" transform="translate(106.358 61.521)" fill="#a7dbff"/>
        <path id="Path_2385" data-name="Path 2385" d="M531.475,106.571H503.164a12.005,12.005,0,0,1,12.005-12.005h4.3a12.005,12.005,0,0,1,12.005,12.005Z" transform="translate(-398.944 -51.142)" fill="#c48d7c"/>
        <rect id="Rectangle_3554" data-name="Rectangle 3554" width="170.203" height="5.335" transform="translate(33.657 105.049)" fill="#ed9174"/>
        <path id="Rectangle_3555" data-name="Rectangle 3555" d="M3.7,0H29.783a3.7,3.7,0,0,1,3.7,3.7V14.721a0,0,0,0,1,0,0H0a0,0,0,0,1,0,0V3.7A3.7,3.7,0,0,1,3.7,0Z" transform="translate(58.817 164.471)" fill="#ffddd4"/>
        <rect id="Rectangle_3556" data-name="Rectangle 3556" width="14.317" height="41.899" transform="translate(59.221 182.428)" fill="#ffddd4"/>
        <rect id="Rectangle_3557" data-name="Rectangle 3557" width="14.317" height="41.899" transform="translate(77.866 182.428)" fill="#ffddd4"/>
        <rect id="Rectangle_3558" data-name="Rectangle 3558" width="68.268" height="23.295" transform="translate(116.732 160.265)" fill="#a7dbff"/>
        <path id="Path_2386" data-name="Path 2386" d="M529.693,128.691H519.016V114.759h-2.689v13.933H505.518v2.6h10.808v14.266h2.689V131.29h10.677Z" transform="translate(-399.191 -53.256)" fill="#fff"/>
        <rect id="Rectangle_3559" data-name="Rectangle 3559" width="168.972" height="7.28" transform="translate(33.661 220.121)" fill="#c48d7c"/>
        <rect id="Rectangle_3560" data-name="Rectangle 3560" width="80.033" height="7.803" transform="translate(117.025 201.289)" fill="#fff"/>
        <rect id="Rectangle_3561" data-name="Rectangle 3561" width="9.871" height="33.881" transform="translate(121.693 197.087)" fill="#fff"/>
        <rect id="Rectangle_3562" data-name="Rectangle 3562" width="9.871" height="33.881" transform="translate(142.635 197.087)" fill="#fff"/>
        <rect id="Rectangle_3563" data-name="Rectangle 3563" width="9.871" height="33.881" transform="translate(163.177 197.087)" fill="#fff"/>
        <rect id="Rectangle_3564" data-name="Rectangle 3564" width="9.871" height="33.881" transform="translate(182.918 197.087)" fill="#fff"/>
        <path id="Path_2387" data-name="Path 2387" d="M505.732,66.827l-.053.052L416.921,126.35a23.875,23.875,0,0,1-30.165-2.946l.747-.487c.131-.052,8.088.623,8.228.579L496.4,61.792l9.29-15.728Z" transform="translate(-386.756 -46.064)" fill="#c15e59"/>
        <path id="Path_2388" data-name="Path 2388" d="M423.96,173.051s143.107-1.449,174.1,8.981l-3.553-12.674h-170.2Z" transform="translate(-390.651 -58.973)" fill="#c15e59"/>
      </g>
      <rect id="Rectangle_3565" data-name="Rectangle 3565" width="5.294" height="71.992" transform="translate(71.992 152.094)" fill="#948478"/>
      <path id="Path_2389" data-name="Path 2389" d="M419.654,229.732A28.087,28.087,0,0,1,408.6,251.754a33.985,33.985,0,0,1-21.1,7.161c-17.765,0-32.164-13.062-32.164-29.184,0-9.264,4.771-17.5,12.193-22.848a20.241,20.241,0,1,1,39.421-6.466,20.362,20.362,0,0,1-.791,5.579C414.318,211.29,419.654,219.937,419.654,229.732Z" transform="translate(-312.989 -60.106)" fill="#d8de3f"/>
      <path id="Path_2390" data-name="Path 2390" d="M345.877,324.142l292.568-.033-6.65-13-278.507-.2Z" transform="translate(-311.999 -73.794)" fill="#ffa45e"/>
      <path id="Path_2391" data-name="Path 2391" d="M427.933,138.657,515.078,79.9l76.2,49.745v-5.987L510.092,69.239l-82.167,54.422Z" transform="translate(-320.589 -48.49)" fill="#efa189"/>
    </g>
    <g id="Group_11330" data-name="Group 11330" transform="translate(260.993 182.849)">
      <path id="Path_2392" data-name="Path 2392" d="M313.746,229.974l-9.3,24.015,2.587,6.7,3.614,1.614,1.415-3.369-2.454-2.974,3.24.546,1.87-3.842-2.557-2.545,3.485-.146,6.853-16.914Z" transform="translate(-289.1 -202.104)" fill="#ff9d41"/>
      <path id="Path_2393" data-name="Path 2393" d="M316.6,208.543a12.943,12.943,0,1,0,17.589,5.373A13,13,0,0,0,316.6,208.543Zm9.179,9.521a3.739,3.739,0,1,1,1.6-5.066A3.756,3.756,0,0,1,325.782,218.063Z" transform="translate(-289.638 -199.702)" fill="#ff9d41"/>
      <path id="Path_2394" data-name="Path 2394" d="M307.548,221.878,288.135,238.8l-.83,7.135,2.447,3.111,2.821-2.323-.788-3.775,2.613,1.991,3.443-2.53-1.079-3.443,3.153,1.493,13.938-11.781Z" transform="translate(-287.305 -201.257)" fill="#ffefad"/>
      <path id="Path_2395" data-name="Path 2395" d="M333.613,216.481a9.316,9.316,0,0,1-1.467.115,9.418,9.418,0,0,1-4.754-1.27,3.761,3.761,0,1,1-4.168-5.69,3.5,3.5,0,0,1,.745-.129c.1-.008.2-.015.3-.015a3.756,3.756,0,0,1,3.773,3.742,3.675,3.675,0,0,1-.282,1.422,8.7,8.7,0,0,0,4.39,1.179,8.473,8.473,0,0,0,1.4-.114,12.966,12.966,0,0,0-9.029-10.847c-.243-.076-.494-.152-.745-.213a13.34,13.34,0,0,0-3.2-.388,12.943,12.943,0,1,0,13.061,12.938Q333.636,216.847,333.613,216.481Z" transform="translate(-289.421 -199.413)" fill="#ffefad"/>
      <g id="Group_11329" data-name="Group 11329" transform="translate(33.635)">
        <path id="Path_2396" data-name="Path 2396" d="M333.964,198.845a9.132,9.132,0,0,0-8.375,5.248,8.224,8.224,0,0,0-.715,3.347,7.642,7.642,0,0,0,.167,1.628,8.615,8.615,0,0,0,4.168,5.69,3.527,3.527,0,0,0,.364-.67,7.857,7.857,0,0,1-3.788-5.149,7.562,7.562,0,0,1-.151-1.5,7.356,7.356,0,0,1,.7-3.134,8.358,8.358,0,0,1,7.63-4.7,8.1,8.1,0,0,1,8.328,7.835,8,8,0,0,1-6.929,7.713c.038.251.053.5.068.76a8.752,8.752,0,0,0,7.622-8.473A8.863,8.863,0,0,0,333.964,198.845Z" transform="translate(-324.874 -198.845)" fill="#fff"/>
        <path id="Path_2397" data-name="Path 2397" d="M335.938,217.7a9.316,9.316,0,0,1-1.467.115,9.418,9.418,0,0,1-4.754-1.27,3.527,3.527,0,0,0,.364-.67,8.7,8.7,0,0,0,4.39,1.179,8.473,8.473,0,0,0,1.4-.114C335.908,217.186,335.923,217.438,335.938,217.7Z" transform="translate(-325.381 -200.628)" fill="#ffefad"/>
      </g>
    </g>
    <g id="Group_11331" data-name="Group 11331" transform="translate(263.778 78.62)">
      <rect id="Rectangle_3566" data-name="Rectangle 3566" width="68.833" height="86.548" transform="translate(0 2.531)" fill="#ffe4ce"/>
      <path id="Path_2398" data-name="Path 2398" d="M309.933,100.985l-7.592-4.218-7.592,4.218V82.427h15.184Z" transform="translate(-290.869 -82.427)" fill="#ff6e61"/>
      <rect id="Rectangle_3567" data-name="Rectangle 3567" width="13.033" height="8.435" transform="translate(49.98 75.244)" fill="#fff"/>
      <path id="Path_2399" data-name="Path 2399" d="M351.577,109.722H299.446a.928.928,0,0,1-.928-.928h0a.928.928,0,0,1,.928-.928h52.131a.928.928,0,0,1,.928.928h0A.928.928,0,0,1,351.577,109.722Z" transform="translate(-291.264 -85.091)" fill="#ffca9d"/>
      <path id="Path_2400" data-name="Path 2400" d="M351.577,115.093H299.446a.928.928,0,0,1-.928-.928h0a.928.928,0,0,1,.928-.928h52.131a.928.928,0,0,1,.928.928h0A.928.928,0,0,1,351.577,115.093Z" transform="translate(-291.264 -85.653)" fill="#ffca9d"/>
      <path id="Path_2401" data-name="Path 2401" d="M351.577,120.463H299.446a.928.928,0,0,1-.928-.928h0a.928.928,0,0,1,.928-.928h52.131a.928.928,0,0,1,.928.928h0A.928.928,0,0,1,351.577,120.463Z" transform="translate(-291.264 -86.215)" fill="#ffca9d"/>
      <path id="Path_2402" data-name="Path 2402" d="M351.577,125.834H299.446a.928.928,0,0,1-.928-.928h0a.928.928,0,0,1,.928-.928h52.131a.928.928,0,0,1,.928.928h0A.928.928,0,0,1,351.577,125.834Z" transform="translate(-291.264 -86.778)" fill="#ffca9d"/>
      <path id="Path_2403" data-name="Path 2403" d="M351.577,131.2H299.446a.928.928,0,0,1-.928-.928h0a.928.928,0,0,1,.928-.928h52.131a.928.928,0,0,1,.928.928h0A.928.928,0,0,1,351.577,131.2Z" transform="translate(-291.264 -87.34)" fill="#ffca9d"/>
      <path id="Path_2404" data-name="Path 2404" d="M351.577,136.575H299.446a.928.928,0,0,1-.928-.928h0a.928.928,0,0,1,.928-.928h52.131a.928.928,0,0,1,.928.928h0A.928.928,0,0,1,351.577,136.575Z" transform="translate(-291.264 -87.902)" fill="#ffca9d"/>
      <path id="Path_2405" data-name="Path 2405" d="M351.577,141.945H299.446a.928.928,0,0,1-.928-.928h0a.928.928,0,0,1,.928-.928h52.131a.928.928,0,0,1,.928.928h0A.928.928,0,0,1,351.577,141.945Z" transform="translate(-291.264 -88.465)" fill="#ffca9d"/>
      <path id="Path_2406" data-name="Path 2406" d="M351.577,147.316H299.446a.928.928,0,0,1-.928-.928h0a.928.928,0,0,1,.928-.928h52.131a.928.928,0,0,1,.928.928h0A.928.928,0,0,1,351.577,147.316Z" transform="translate(-291.264 -89.027)" fill="#ffca9d"/>
    </g>
    <path id="Path_2407" data-name="Path 2407" d="M408.6,252.095a33.985,33.985,0,0,1-21.1,7.161c-17.765,0-32.164-13.062-32.164-29.184,0-9.264,4.771-17.5,12.193-22.848a20.174,20.174,0,0,1,8.7-23.8c-.166,7.735,1.686,20.381,14.548,25.351,0,0-15.86,2.825-16.078,17.6C374.514,238.894,391.009,254.989,408.6,252.095Z" transform="translate(-33.435 -14.382)" fill="#c4c42d"/>
    <g id="Group_11336" data-name="Group 11336" transform="translate(340.934 312.225)">
      <g id="Group_11332" data-name="Group 11332" transform="translate(0 11.584)">
        <path id="Path_2408" data-name="Path 2408" d="M414.591,370.363c0-.048.019-.095.019-.144s-.016-.095-.019-.143v-6.309H403.566a48.317,48.317,0,0,0-15.926,0H376.6v6.608h.021c.223,3.856,8.63,6.958,18.987,6.958s18.765-3.1,18.987-6.958h0Z" transform="translate(-376.595 -357.003)" fill="#e97700"/>
        <ellipse id="Ellipse_42" data-name="Ellipse 42" cx="19.008" cy="7.113" rx="19.008" ry="7.113" fill="#ff9d41"/>
        <ellipse id="Ellipse_43" data-name="Ellipse 43" cx="13.087" cy="4.898" rx="13.087" ry="4.898" transform="translate(5.804 1.749)" fill="#ffefad"/>
      </g>
      <g id="Group_11333" data-name="Group 11333" transform="translate(9.329 0.233)">
        <path id="Path_2409" data-name="Path 2409" d="M425.011,357.685c0-.048.019-.095.019-.143s-.016-.1-.019-.144V351.09H413.986a48.258,48.258,0,0,0-15.927,0H387.015V357.7h.021c.223,3.856,8.63,6.958,18.987,6.958s18.765-3.1,18.988-6.958h0Z" transform="translate(-387.015 -344.326)" fill="#e97700"/>
        <ellipse id="Ellipse_44" data-name="Ellipse 44" cx="19.008" cy="7.113" rx="19.008" ry="7.113" fill="#ff9d41"/>
        <ellipse id="Ellipse_45" data-name="Ellipse 45" cx="13.087" cy="4.898" rx="13.087" ry="4.898" transform="translate(5.804 1.749)" fill="#ffefad"/>
      </g>
      <g id="Group_11334" data-name="Group 11334" transform="translate(41.281)">
        <ellipse id="Ellipse_46" data-name="Ellipse 46" cx="16.928" cy="16.753" rx="16.928" ry="16.753" fill="#e97700"/>
        <ellipse id="Ellipse_47" data-name="Ellipse 47" cx="15.412" cy="16.384" rx="15.412" ry="16.384" transform="translate(4.431 0.389)" fill="#ff9d41"/>
        <ellipse id="Ellipse_48" data-name="Ellipse 48" cx="10.293" cy="10.942" rx="10.293" ry="10.942" transform="translate(10.289 5.792)" fill="#ffefad"/>
      </g>
      <g id="Group_11335" data-name="Group 11335" transform="translate(29.464 27.676)">
        <path id="Path_2410" data-name="Path 2410" d="M447.5,388.338c0-.048.019-.1.019-.144s-.017-.1-.019-.144v-6.308H436.476a48.317,48.317,0,0,0-15.926,0H409.505v6.608h.021c.223,3.856,8.63,6.957,18.987,6.957s18.765-3.1,18.987-6.957h0Z" transform="translate(-409.505 -374.978)" fill="#e97700"/>
        <ellipse id="Ellipse_49" data-name="Ellipse 49" cx="19.008" cy="7.113" rx="19.008" ry="7.113" fill="#ff9d41"/>
        <ellipse id="Ellipse_50" data-name="Ellipse 50" cx="13.087" cy="4.898" rx="13.087" ry="4.898" transform="translate(5.804 1.749)" fill="#ffefad"/>
      </g>
    </g>
    <g id="Group_11337" data-name="Group 11337" transform="translate(70.784 57.986)">
      <path id="Path_2411" data-name="Path 2411" d="M315.468,255.486l-45.859,37.458c-5.378-20.134-27.829-98.17-52.34-96.488-19.557,1.342-1.406,76.649-1.406,76.649l27.023,41.667-1.206.985s14.482,22.619,29.515,19.86c18.305-3.358,64.685-60.271,64.685-60.271Z" transform="translate(-88.813 -73.73)" fill="#c7ecff"/>
      <path id="Path_2412" data-name="Path 2412" d="M141.891,175.466,93.126,200.329S94.875,276.321,113.08,308.6l3.974,58.894,107.752-.551s5.1-147.089-10.482-170.47c-.551-.827-32-20.412-32-20.412Z" transform="translate(-76.765 -71.535)" fill="#a7dbff"/>
      <path id="Path_2413" data-name="Path 2413" d="M189.352,187.459s-31.67-8.239-35.712-17.538l.183-29.7.026-4.8c.9.13,34.068,27.75,34.068,27.75a48.869,48.869,0,0,0-.261,7.153A145.687,145.687,0,0,0,189.352,187.459Z" transform="translate(-83.101 -67.343)" fill="#ffc197"/>
      <path id="Path_2414" data-name="Path 2414" d="M187.666,170.33a30.243,30.243,0,0,1-11-1.7c-12.471-4.632-21.84-15.921-22.83-28.4a26.031,26.031,0,0,1,.026-4.8s10.724,25.195,34.068,27.75A48.869,48.869,0,0,0,187.666,170.33Z" transform="translate(-83.111 -67.343)" fill="#ff966f"/>
      <path id="Path_2415" data-name="Path 2415" d="M144.018,106.857a9.378,9.378,0,0,1,6.545.7c-.045-8.783.54-15.551.54-15.551s42.273-23.536,60.783,1.6c0,0,.458,25.365-2.056,37.247s-6.169,21.937-14.853,25.593-28.792-.914-37.933-14.168c-2.14-3.1-3.6-7.509-4.59-12.438a5.24,5.24,0,0,1-2.036.556C141.276,131.079,136.478,108.456,144.018,106.857Z" transform="translate(-81.703 -61.749)" fill="#ffc197"/>
      <path id="Path_2416" data-name="Path 2416" d="M166.854,85.123s.172,14.053-7.883,21.423v9.769s-8.62,1.054-8.766-11.128c0,0-5.459-2.069-9.058,1.187,0,0-8.055-16.967-2.057-25.879,0,0-3.942-15.253,19.365-19.88s45.76,5.485,56.042,2.228c0,0-.171,4.456-3.084,5.827a18.434,18.434,0,0,0,6.683.514s2.228,6-2.228,9.6c0,0,4.628,11.311-4.284,23.993,0,0-.514-12.511-2.4-14.053C209.185,88.722,180.564,93.862,166.854,85.123Z" transform="translate(-81.345 -59.381)" fill="#00334f"/>
      <path id="Path_2417" data-name="Path 2417" d="M188.669,108.194a18.064,18.064,0,0,0-7.183-2.425,9.182,9.182,0,0,0-7.125,1.807s.548-3.075,4.759-4.6C182.36,101.8,187.814,103.18,188.669,108.194Z" transform="translate(-85.27 -63.904)" fill="#00334f"/>
      <path id="Path_2418" data-name="Path 2418" d="M178.4,115.377c0,2.114,1.383,3.827,3.09,3.827s3.091-1.714,3.091-3.827-1.383-3.827-3.091-3.827S178.4,113.264,178.4,115.377Z" transform="translate(-85.693 -64.843)" fill="#00334f"/>
      <path id="Path_2419" data-name="Path 2419" d="M204.367,115.377c0,2.114,1.3,3.827,2.9,3.827s2.9-1.714,2.9-3.827-1.3-3.827-2.9-3.827S204.367,113.264,204.367,115.377Z" transform="translate(-88.412 -64.843)" fill="#00334f"/>
      <path id="Path_2420" data-name="Path 2420" d="M215.09,107.506s-1.714-1.714-5.485-1.714a7.292,7.292,0,0,0-5.712,2.742s.907-5.348,5.25-5.348S215.09,107.506,215.09,107.506Z" transform="translate(-88.362 -63.967)" fill="#00334f"/>
      <path id="Path_2421" data-name="Path 2421" d="M200.406,121.377s.114,6.17,3.2,7.54.457,5.713-2.171,6.169c0,0,1.124-2.909.688-4.212s-1.883-1.086-2.245-4.056A13.081,13.081,0,0,1,200.406,121.377Z" transform="translate(-87.933 -65.872)" fill="#ff966f"/>
      <path id="Path_2422" data-name="Path 2422" d="M179.1,198.857l8.658,12.206a17.035,17.035,0,0,1,8.515-1.42s1.7-8.374.284-13.057l-6.706-4.533Z" transform="translate(-85.767 -73.272)" fill="#0079bb"/>
      <path id="Path_2423" data-name="Path 2423" d="M143.942,240.868s15.541.638,28.315-1.278c0,0,5.323,36.4-10.644,41.089,0,0-12.561,1.916-15.967-10.432A75.183,75.183,0,0,1,143.942,240.868Z" transform="translate(-82.009 -78.249)" fill="#c7ecff"/>
      <path id="Path_2424" data-name="Path 2424" d="M188.071,212.946s-2.129,80.473-2.129,82.176,11.638,15.755,15.045,16.464,7.238-15.47,7.805-18.024-9.083-73.945-11.638-81.893C197.154,211.669,189.348,211.385,188.071,212.946Z" transform="translate(-86.483 -75.323)" fill="#0079bb"/>
      <path id="Path_2425" data-name="Path 2425" d="M200.428,141.446s-8.941-.316-16.8-.8c0,0,3.2,5.942,8.112,6.856S200.428,141.446,200.428,141.446Z" transform="translate(-86.241 -67.889)" fill="#fff"/>
      <path id="Path_2426" data-name="Path 2426" d="M144.886,112.7s4.8,4,4.456,8.226c0,0-1.485.914-1.142,3.542a6.626,6.626,0,0,0,1.714,3.885s-7.012-.614-5.485-4.684a8.474,8.474,0,0,1,1.813-1.868S144.128,114.515,144.886,112.7Z" transform="translate(-82.114 -64.963)" fill="#ff966f"/>
      <path id="Path_2427" data-name="Path 2427" d="M153.23,166.234c3.856,6.255,32.734,23.65,32.734,23.65s-7.256,3.714-17.881,12.168c-6.552,5.213-20.566-27.878-20.566-27.878S153.218,166.215,153.23,166.234Z" transform="translate(-82.46 -70.568)" fill="#c7ecff"/>
      <path id="Path_2428" data-name="Path 2428" d="M190.312,190.679s14.721,9.649,15.668,8.009c.743-1.288-3.461-14.97-9.41-20.919-.136-.135-5.144-4.332-5.144-4.332S192.711,186.394,190.312,190.679Z" transform="translate(-86.94 -71.323)" fill="#c7ecff"/>
      <path id="Path_2429" data-name="Path 2429" d="M229.589,268.718l3.836,99.426-70.334,6.074-6.074-101.025Z" transform="translate(-83.454 -81.299)" fill="#ffa45e"/>
      <path id="Path_2430" data-name="Path 2430" d="M185.967,277.661,166.107,278.9,171.9,369.93l57.927-6L225.9,275.178Z" transform="translate(-84.406 -81.975)" fill="#ffdec8"/>
      <path id="Path_2431" data-name="Path 2431" d="M185.1,315.22l-68.969,5.906,6.905-89.762s-8-29.791-32.136-28.136c0,0-7.586,0-9.793,29.791,0,0-18.34,103.594,7.775,122.329,15.753,11.3,102.562-9.511,102.562-9.511Z" transform="translate(-74.851 -74.435)" fill="#c7ecff"/>
      <path id="Path_2432" data-name="Path 2432" d="M181.839,271.429s.931,6.931,2.069,7.861,31.446-1.448,32.377-1.758c.611-.2.954-4.28,1.119-7.059a2.318,2.318,0,0,0-2.411-2.455c-8.128.34-33.1,1.41-34.395,1.757a2.282,2.282,0,0,0-1.552,2.172Z" transform="translate(-85.761 -81.225)" fill="#929496"/>
      <path id="Path_2433" data-name="Path 2433" d="M188.521,268.567a8,8,0,0,1,3.1-5.172c2.793-2.068,15.619-2.586,17.9-1.138S212,267.74,212,267.74h-2.069s-1.241-3.31-2.792-3.517-10.447-.517-13.344,1.241-2.482,3.31-2.482,3.31Z" transform="translate(-86.753 -80.536)" fill="#929496"/>
      <path id="Path_2434" data-name="Path 2434" d="M242.769,327.523c2.069-2.689,2.069-7.448-.827-8.689s-14.068,2.068-14.068,2.068-.721-.227-1.841-.552a10.127,10.127,0,0,1,5.013-1.792c4.827-.414,6.206-4.137,5.655-5.1s-.965-1.1-10.206.689-11.081,2.517-13.309,4.172a29.172,29.172,0,0,0-8.12,9.672l-6.229,2.532,3.621,27.213,6.383-1.04s28.136-2.068,30.2-3.517,2.483-6,2.483-6c3.517-6.413,1.241-9.517,1.241-9.517A10.075,10.075,0,0,0,242.769,327.523Z" transform="translate(-87.833 -85.909)" fill="#ffc197"/>
      <path id="Path_2435" data-name="Path 2435" d="M391.333,250.3c-2.28-1.443-9.45,1.928-12.655,3.57.886-.658,2.947-2.21,3.81-3.048,1.112-1.08,13.611-5.686,7.025-6.662-5.905-.874-14.1,5.134-15.73,6.388l-.008-.006c2.044-1.656,8.059-5.871,9.484-6.44,1.5-.6,7.813-4.924-.286-4.206a18.979,18.979,0,0,0-6.595,1.946l.6-.438s4.517-3-1.027-2.534-13.81,7.42-13.81,7.42l.219.057-12.643,1.662a11.583,11.583,0,0,1-.12-8.21c1.678-4.091-.246-8.375-2.13-7.273s-5.734,9.775-8.046,12.694-4.32,11.8-4.32,11.8l-4.614,4.455,16.242,15.833a25.465,25.465,0,0,1,13.526-8.12c4.789-.963,14.816-7.245,17.983-9.243l.011.049c.069-.064.145-.129.218-.193,1.383-.884,2.478-1.679,3.186-2.219C386.7,254.6,393.678,251.787,391.333,250.3Z" transform="translate(-101.617 -77.491)" fill="#ffc197"/>
      <path id="Path_2436" data-name="Path 2436" d="M120,389.88l-.409,13.767H229.723l-1.68-14.33Z" transform="translate(-79.536 -93.925)" fill="#7f5e40"/>
      <path id="Path_2437" data-name="Path 2437" d="M127.735,389.386,127.2,403.8h7.947l.568-14.195Z" transform="translate(-80.333 -93.933)" fill="#0079bb"/>
      <path id="Path_2438" data-name="Path 2438" d="M192.155,389.386l.106,14.448L216,403.617l-.319-14.122Z" transform="translate(-87.133 -93.933)" fill="#bbbcbf"/>
      <path id="Path_2439" data-name="Path 2439" d="M161.791,389.508l-.745,14.448,8.835-.109.852-14.231Z" transform="translate(-83.876 -93.945)" fill="#0079bb"/>
      <path id="Path_2440" data-name="Path 2440" d="M229.723,389.7l.852,14.231,6.6-.109-.958-14.557Z" transform="translate(-91.067 -93.92)" fill="#0079bb"/>
      <path id="Path_2441" data-name="Path 2441" d="M118.559,405s-6.937,54.2-9.269,85.056H235.74l-7.771-84.765Z" transform="translate(-78.457 -95.567)" fill="#0079bb"/>
      <path id="Path_2442" data-name="Path 2442" d="M185.677,493.526s5.409-42.906,6.828-45.8,19.017-9.56,19.017-9.56l-3.122,5.5s-10.218,3.767-11.353,6.374-6.828,43.486-6.828,43.486Z" transform="translate(-86.455 -99.04)" fill="#056793"/>
      <path id="Path_2443" data-name="Path 2443" d="M121.635,431.9s16.179-7.532,19.585-10.139,3.407-11.588,3.407-11.588" transform="translate(-79.75 -96.109)" fill="none" stroke="#056793" stroke-linejoin="round" stroke-width="1"/>
      <path id="Path_2444" data-name="Path 2444" d="M118.534,337.694s-4.78,9.56-14.34,14.992" transform="translate(-77.924 -88.52)" fill="none" stroke="#9fddff" stroke-linejoin="round" stroke-width="1"/>
      <path id="Path_2445" data-name="Path 2445" d="M115.481,336.966s-7.17,5.215-13.471,6.735" transform="translate(-77.695 -88.444)" fill="none" stroke="#9fddff" stroke-linejoin="round" stroke-width="1"/>
      <path id="Path_2446" data-name="Path 2446" d="M276.205,307.441s-1.449,11.3,1.159,18.54" transform="translate(-95.892 -85.353)" fill="none" stroke="#9fddff" stroke-linejoin="round" stroke-width="1"/>
      <path id="Path_2447" data-name="Path 2447" d="M273.411,306.47s-4.345,4.635-4.925,15.933" transform="translate(-95.125 -85.251)" fill="none" stroke="#9fddff" stroke-linejoin="round" stroke-width="1"/>
      <path id="Path_2448" data-name="Path 2448" d="M85.346,233.647s14.485-1.449,25.783,4.056" transform="translate(-75.95 -77.609)" fill="none" stroke="#9fddff" stroke-linejoin="round" stroke-width="1"/>
      <path id="Path_2449" data-name="Path 2449" d="M379.487,244.141a17.914,17.914,0,0,0-7.47,5.106" transform="translate(-105.965 -78.724)" fill="none" stroke="#ffa067" stroke-linecap="round" stroke-linejoin="round" stroke-width="1"/>
      <path id="Path_2450" data-name="Path 2450" d="M367.256,248.511A31.977,31.977,0,0,1,382.03,255.9" transform="translate(-105.467 -79.183)" fill="none" stroke="#ffa067" stroke-linecap="round" stroke-linejoin="round" stroke-width="1"/>
      <path id="Path_2451" data-name="Path 2451" d="M350.608,251.665s.326,5.649-2.281,9.234" transform="translate(-103.485 -79.513)" fill="none" stroke="#ffa067" stroke-linecap="round" stroke-linejoin="round" stroke-width="1"/>
      <path id="Path_2452" data-name="Path 2452" d="M361.8,262.008s9.125-3.26,12.819-3.912" transform="translate(-104.895 -80.186)" fill="none" stroke="#ffa067" stroke-linecap="round" stroke-linejoin="round" stroke-width="1"/>
      <path id="Path_2453" data-name="Path 2453" d="M178.29,126.241c0,.96-1.7,1.738-3.8,1.738s-3.8-.778-3.8-1.738,1.7-1.739,3.8-1.739S178.29,125.281,178.29,126.241Z" transform="translate(-84.886 -66.199)" fill="#ffa777"/>
      <path id="Path_2454" data-name="Path 2454" d="M216.755,126.241c0,.96-1.7,1.738-3.8,1.738s-3.8-.778-3.8-1.738,1.7-1.739,3.8-1.739S216.755,125.281,216.755,126.241Z" transform="translate(-88.913 -66.199)" fill="#ffa777"/>
      <path id="Path_2455" data-name="Path 2455" d="M189.048,212.808a16.839,16.839,0,0,1,8.268-1.125" transform="translate(-86.808 -75.31)" fill="none" stroke="#9a97ff" stroke-linecap="round" stroke-linejoin="round" stroke-width="1"/>
      <line id="Line_41" data-name="Line 41" x2="0.145" y2="27.086" transform="translate(103.833 138.077)" fill="none" stroke="#9a97ff" stroke-linecap="round" stroke-linejoin="round" stroke-width="1"/>
      <line id="Line_42" data-name="Line 42" y2="4.056" transform="translate(104.123 168.35)" fill="none" stroke="#9a97ff" stroke-linecap="round" stroke-linejoin="round" stroke-width="1"/>
      <line id="Line_43" data-name="Line 43" x2="4.925" y2="27.521" transform="translate(96.157 246.711)" fill="none" stroke="#9fddff" stroke-linecap="round" stroke-linejoin="round" stroke-width="1"/>
      <path id="Path_2456" data-name="Path 2456" d="M192.21,337.172a2.39,2.39,0,1,1-2.39-2.39A2.39,2.39,0,0,1,192.21,337.172Z" transform="translate(-86.639 -88.216)" fill="none" stroke="#9fddff" stroke-linejoin="round" stroke-width="1"/>
      <line id="Line_44" data-name="Line 44" x2="16.73" y2="17.382" transform="translate(221.593 190.403)" fill="none" stroke="#9fddff" stroke-linecap="round" stroke-linejoin="round" stroke-width="1"/>
      <line id="Line_45" data-name="Line 45" x2="100.233" transform="translate(44.592 312.037)" fill="none" stroke="#056793" stroke-linejoin="round" stroke-width="1"/>
    </g>
  </g>
</svg>
