<svg xmlns="http://www.w3.org/2000/svg" width="368.786" height="245.381" viewBox="0 0 368.786 245.381">
  <g id="Group_10460" data-name="Group 10460" transform="translate(-0.013 0.004)">
    <path id="Path_2097" data-name="Path 2097" d="M301.281,155.943c-21.7-.771-42.359-7.774-62.077-15.42s-39.275-16.155-60.451-20.214c-13.62-2.611-29.2-2.98-40.17,4.321-10.563,7.04-13.976,19.158-15.809,30.415-1.381,8.468-2.192,17.378,1.589,25.306,2.628,5.5,7.288,10.131,10.513,15.4,11.22,18.344,3.289,40.965-8.867,58.876-5.7,8.4-12.32,16.426-16.721,25.363s-6.436,19.192-2.585,28.317c3.815,9.051,12.91,15.836,22.762,20.613,20.01,9.7,43.579,12.48,66.579,14.053,50.9,3.483,102.063,1.974,153.095.466,18.887-.56,37.854-1.126,56.432-4.046,10.318-1.622,20.968-4.2,28.461-10.409,9.507-7.888,11.864-21.247,5.491-31.136-10.687-16.59-40.227-20.71-47.706-38.518-4.11-9.8.111-20.717,6.088-29.805,12.819-19.5,34.3-36.6,35.433-58.893.778-15.306-9.551-30.636-25.521-37.881-16.738-7.593-39.952-6.637-52.3,5.93C342.789,151.612,320.439,156.59,301.281,155.943Z" transform="translate(-86.312 -107.006)" fill="#e86365" opacity="0.1"/>
    <ellipse id="Ellipse_41" data-name="Ellipse 41" cx="24.542" cy="4.72" rx="24.542" ry="4.72" transform="translate(32.878 235.937)" fill="#7b7b7b"/>
    <ellipse id="Ellipse_42" data-name="Ellipse 42" cx="2.856" cy="3.741" rx="2.856" ry="3.741" transform="translate(54.151 234.911)" fill="#3f3d56"/>
    <ellipse id="Ellipse_43" data-name="Ellipse 43" cx="2.856" cy="3.741" rx="2.856" ry="3.741" transform="translate(54.151 230.339)" fill="#3f3d56"/>
    <ellipse id="Ellipse_44" data-name="Ellipse 44" cx="2.856" cy="3.741" rx="2.856" ry="3.741" transform="translate(54.151 225.766)" fill="#3f3d56"/>
    <ellipse id="Ellipse_45" data-name="Ellipse 45" cx="2.856" cy="3.741" rx="2.856" ry="3.741" transform="translate(54.151 221.197)" fill="#3f3d56"/>
    <ellipse id="Ellipse_46" data-name="Ellipse 46" cx="2.856" cy="3.741" rx="2.856" ry="3.741" transform="translate(54.151 216.625)" fill="#3f3d56"/>
    <ellipse id="Ellipse_47" data-name="Ellipse 47" cx="2.856" cy="3.741" rx="2.856" ry="3.741" transform="translate(54.151 212.052)" fill="#3f3d56"/>
    <ellipse id="Ellipse_48" data-name="Ellipse 48" cx="2.856" cy="3.741" rx="2.856" ry="3.741" transform="translate(54.151 207.48)" fill="#3f3d56"/>
    <path id="Path_2098" data-name="Path 2098" d="M203.424,576.889a13.553,13.553,0,0,0,1.066-1.565l-7.509-1.234,8.119.06a13.7,13.7,0,0,0,.261-10.845l-10.892,5.652,10.057-7.375A13.687,13.687,0,1,0,181.919,576.9a13.814,13.814,0,0,0-1.562,2.5l9.748,5.062-10.392-3.486a13.681,13.681,0,0,0,2.206,12.853,13.687,13.687,0,1,0,21.515,0,13.687,13.687,0,0,0,0-16.926Z" transform="translate(-135.72 -396.955)" fill="#4bb543"/>
    <path id="Path_2099" data-name="Path 2099" d="M179,645.6a13.63,13.63,0,0,0,2.93,8.461,13.687,13.687,0,1,0,21.515,0C205.268,651.74,179,644.07,179,645.6Z" transform="translate(-135.727 -457.21)" opacity="0.1"/>
    <path id="Path_2100" data-name="Path 2100" d="M575.812,611.266c.208,2.682,1.24,5.458,3.413,7.04s5.628,1.552,7.288-.573a8.152,8.152,0,0,0,1.21-2.632c1.4-4.418,2.39-9.252.858-13.627-3.456-.225-7.462-1.85-10.057,1.006A11.914,11.914,0,0,0,575.812,611.266Z" transform="translate(-399.49 -427.568)" fill="#3f3d56"/>
    <path id="Path_2101" data-name="Path 2101" d="M588.559,526.6c-.459,3.9-1.24,7.781-1.16,11.706.03,1.515.191,3.017.194,4.539a22.373,22.373,0,0,1-3.017,11.254,3.777,3.777,0,0,1-.825,1.066,2.648,2.648,0,0,1-2.883.1,5.672,5.672,0,0,1-2.048-2.223c-2.5-4.278-2.568-9.477-3.557-14.328-.758-3.711-2.085-7.308-2.565-11.063-.312-2.417-.265-4.881-.761-7.268-.151-.721-.573-1.8-.852-2.866a4.309,4.309,0,0,1-.134-2.521c.533-1.311,2.28-.8,3.416-.721a78.636,78.636,0,0,0,12.021-.03,1.033,1.033,0,0,1,1.391.721,16.262,16.262,0,0,1,.727,2.682A29.794,29.794,0,0,1,588.559,526.6Z" transform="translate(-396.194 -369.931)" fill="#fabdbd"/>
    <g id="Group_10455" data-name="Group 10455" transform="translate(174.626 144.179)" opacity="0.1">
      <path id="Path_2102" data-name="Path 2102" d="M606.506,514.478a2.951,2.951,0,0,0-.62,0c-1.917.154-3.838.231-5.756.241Q603.318,514.726,606.506,514.478Z" transform="translate(-590.309 -514.344)"/>
      <path id="Path_2103" data-name="Path 2103" d="M581.56,555.263a5.672,5.672,0,0,1-2.048-2.223c-2.5-4.278-2.568-9.477-3.557-14.328-.758-3.711-2.085-7.308-2.564-11.062-.312-2.417-.265-4.881-.761-7.268-.151-.721-.573-1.8-.851-2.866a4.309,4.309,0,0,1-.134-2.521,1.428,1.428,0,0,1,1.341-.872c-.848-.057-1.676.044-2.011.872a4.309,4.309,0,0,0,.134,2.521c.278,1.063.7,2.145.852,2.866.5,2.387.449,4.851.761,7.268.479,3.758,1.807,7.355,2.565,11.063.989,4.851,1.059,10.057,3.557,14.328a5.673,5.673,0,0,0,2.048,2.223,2.978,2.978,0,0,0,1.757.355,3.091,3.091,0,0,1-1.086-.355Z" transform="translate(-570.833 -514.111)"/>
    </g>
    <path id="Path_2104" data-name="Path 2104" d="M635.979,534.07c-2.011,4.023-1.676,9.722-1.676,9.722.335,13.409-5.028,41.568-5.028,41.568h-4.693s-.67-31.176,0-33.858-.335-12.068-1.341-25.142a67.113,67.113,0,0,1,2.38-22.4c.375-1.341.637-2.075.637-2.075s7.71-11.4,12.068-6.034c1.006,1.247,1.539,3.765,1.723,6.943C640.645,513.282,637.521,530.982,635.979,534.07Z" transform="translate(-430.939 -356.841)" fill="#fabdbd"/>
    <path id="Path_2105" data-name="Path 2105" d="M650.34,502.8c-.184-3.178-.711-5.7-1.723-6.943a3.453,3.453,0,0,0-3.292-1.4,3.574,3.574,0,0,1,2.286,1.4c1.006,1.247,1.539,3.765,1.723,6.943.6,10.486-2.528,28.186-4.07,31.273-2.011,4.023-1.676,9.722-1.676,9.722.335,13.409-5.028,41.568-5.028,41.568h1.006s5.364-28.159,5.028-41.568c0,0-.335-5.7,1.676-9.722C647.812,530.987,650.937,513.287,650.34,502.8Z" transform="translate(-441.23 -356.846)" opacity="0.1"/>
    <path id="Path_2106" data-name="Path 2106" d="M617.981,754.682a4.357,4.357,0,0,0-.959,1.046c-.6,1.133.251,2.487,1.163,3.389s2.011,1.867,2.011,3.151a3.142,3.142,0,0,1-1.656,2.467c-.469.3-1.059.671-.962,1.227a1.154,1.154,0,0,0,.178.392,5.188,5.188,0,0,0,3.429,2.078,15.473,15.473,0,0,0,4.11.034.828.828,0,0,0,.563-.194.764.764,0,0,0,.151-.463,6.021,6.021,0,0,1,.335-2.1c.436-.875,1.438-1.321,2.011-2.105a4.68,4.68,0,0,0,.389-3.869,15.958,15.958,0,0,0-4.4-8.045C621.749,749.429,619.714,753.05,617.981,754.682Z" transform="translate(-426.779 -527.388)" fill="#3f3d56"/>
    <path id="Path_2107" data-name="Path 2107" d="M446.6,224.949c1.871-2.8,1.385-6.7-.526-9.487a16.211,16.211,0,0,0-8.149-5.662,22.939,22.939,0,0,0-13.369-.9c-3.493.908-6.631,2.809-9.923,4.277a42.671,42.671,0,0,1-18.531,3.687c-7.077-.2-14.83-2.011-20.767,1.857-10.868,7.07-6.034,26.312-16.316,34.193-2.772,2.125-6.262,3.054-9.346,4.693s-6.007,4.492-5.934,7.985a9.291,9.291,0,0,0,1.676,4.693,21.719,21.719,0,0,0,18.28,9.822,23.277,23.277,0,0,0,18.421-9.815c1.043-1.478,1.961-3.124,3.473-4.11,3.017-1.978,6.993-.593,10.593-.3a17.176,17.176,0,0,0,17.63-13.258c.67-3.369.553-7.4,3.265-9.51,2.189-1.706,5.27-1.341,8.045-1.633,5.075-.526,9.081-3.687,11.837-7.818,1.264-1.894,1.411-4.157,3.134-5.649C441.949,226.38,444.822,227.591,446.6,224.949Z" transform="translate(-245.239 -166.625)" fill="#3f3d56"/>
    <g id="Group_10456" data-name="Group 10456" transform="translate(116.932 41.647)" opacity="0.1">
      <path id="Path_2108" data-name="Path 2108" d="M459.438,233.315a42.5,42.5,0,0,0,8.773-.67c-.8.023-1.6.023-2.4,0-5.555-.154-11.525-1.3-16.708.08C452.519,232.758,456.056,233.221,459.438,233.315Z" transform="translate(-432.215 -224.073)"/>
      <path id="Path_2109" data-name="Path 2109" d="M415.434,380.925c-1.512.986-2.43,2.632-3.473,4.11a23.55,23.55,0,0,1-13.231,9.121c.392.017.784.027,1.18.023a23.267,23.267,0,0,0,18.421-9.815c1.043-1.478,1.961-3.124,3.473-4.11l.261-.161C419.7,379.769,417.375,379.655,415.434,380.925Z" transform="translate(-398.73 -322.345)"/>
      <path id="Path_2110" data-name="Path 2110" d="M597.863,215.432a16.279,16.279,0,0,0-8.149-5.662,22.939,22.939,0,0,0-13.369-.9c-.1.023-.2.054-.3.08a25.662,25.662,0,0,1,7.295,1.488,16.278,16.278,0,0,1,8.149,5.662c1.907,2.769,2.4,6.7.526,9.487-1.777,2.652-4.65,1.441-6.53,3.074-1.723,1.492-1.871,3.755-3.134,5.649a17.238,17.238,0,0,1-9.775,7.442c1.411-.168,2.9-.147,4.308-.295,5.075-.526,9.081-3.687,11.837-7.817,1.264-1.894,1.411-4.157,3.134-5.649,1.881-1.633,4.753-.422,6.53-3.074C600.263,222.123,599.777,218.2,597.863,215.432Z" transform="translate(-514.301 -208.252)"/>
      <path id="Path_2111" data-name="Path 2111" d="M520.943,309.23c-2.759.288-5.84-.074-8.045,1.633-2.712,2.115-2.581,6.141-3.265,9.51A17.211,17.211,0,0,1,498,332.927l.4.037a17.176,17.176,0,0,0,17.63-13.258c.67-3.369.553-7.4,3.265-9.51a6.054,6.054,0,0,1,2.082-1.006C521.225,309.193,521.087,309.217,520.943,309.23Z" transform="translate(-464.722 -275.353)"/>
    </g>
    <path id="Path_2112" data-name="Path 2112" d="M564.717,172.963s-8.045,16.091-10.727,22.125-27.153,15.085-30.506,15.42a4.317,4.317,0,0,0-2.394,1.153,13.186,13.186,0,0,0-2.97,4.546s1.341,9.051-.335,24.136c-.034.292-.064.583-.091.865-1.462,14.354,1.6,17.74,1.6,17.74s-32.517,12.4-31.511-3.688a72.928,72.928,0,0,0-.044-11.86,49.805,49.805,0,0,0-1.924-9.339c-.794-2.779-1.743-5.826-2.725-9.976A43.755,43.755,0,0,0,481.225,218c-.023-.06-.047-.121-.067-.178-1.676-4.16-3.352-5.5-4.311-5.94a14.491,14.491,0,0,1-2.575-1.448,135.409,135.409,0,0,1-15.665-13.168c-8.045-8.045-16.091-27.153-16.091-27.153S440.17,159.051,445.534,150s3.017,17.767,3.017,17.767,9.722,13.074,12.068,19.108a10.083,10.083,0,0,0,4.693,5.518,55.65,55.65,0,0,1,7.422,4.64,43.34,43.34,0,0,0,4.992,3.258c3.748,2.011,8.237,4.281,11.978,4.878a11.294,11.294,0,0,0,1.767.151,1.83,1.83,0,0,0,1.475-.67c1.006-1.183.982-3.731.751-5.826a29.6,29.6,0,0,0-.55-3.228s10.895-6.872,10.56,1.509a9.367,9.367,0,0,0,.255,2.756,4.777,4.777,0,0,0,3.248,3.553,8.046,8.046,0,0,0,4.023.131,3.931,3.931,0,0,0,1.187-.406c1.006-.67,11.063-3.688,14.08-4.023s18.1-7.71,18.1-7.71l16.426-22.8s-.335-13.409,6.369-18.773S564.717,172.963,564.717,172.963Z" transform="translate(-310.566 -126.64)" fill="#fabdbd"/>
    <g id="Group_10457" data-name="Group 10457" transform="translate(131.434 23.96)" opacity="0.1">
      <path id="Path_2113" data-name="Path 2113" d="M667.014,391.215a66.833,66.833,0,0,0-.386,8.113c.034-1.77.151-3.791.386-6.1.027-.282.057-.573.091-.865a131.464,131.464,0,0,0,.838-15.551,134.661,134.661,0,0,1-.838,13.54C667.084,390.641,667.041,390.933,667.014,391.215Z" transform="translate(-591.319 -302.618)"/>
      <path id="Path_2114" data-name="Path 2114" d="M594.935,289.07c-.225.131-.335.211-.335.211a28.711,28.711,0,0,1,.644,4.358A20.566,20.566,0,0,0,594.935,289.07Z" transform="translate(-543.441 -244.29)"/>
      <path id="Path_2115" data-name="Path 2115" d="M461.721,180.855c.164-2.347.409-6.554.362-10.295-.057,5-.5,10.1-.5,10.1Z" transform="translate(-455.013 -165.508)"/>
      <path id="Path_2116" data-name="Path 2116" d="M578.538,466.53a2.2,2.2,0,0,1-.023.392c-1.006,16.091,31.511,3.688,31.511,3.688a5.459,5.459,0,0,1-.848-1.7C604.28,470.65,579.668,478.756,578.538,466.53Z" transform="translate(-532.733 -362.261)"/>
      <path id="Path_2117" data-name="Path 2117" d="M715.657,175.842s-8.046,16.091-10.727,22.125-27.153,15.085-30.506,15.42a4.317,4.317,0,0,0-2.394,1.153,13.185,13.185,0,0,0-2.97,4.546s.08.546.178,1.586a12.464,12.464,0,0,1,2.792-4.12,4.318,4.318,0,0,1,2.394-1.153c3.352-.335,27.824-9.386,30.506-15.42s10.727-22.125,10.727-22.125,5.669-17.214,5.045-22.363C720.186,162.087,715.657,175.842,715.657,175.842Z" transform="translate(-592.94 -155.49)"/>
      <path id="Path_2118" data-name="Path 2118" d="M487.728,271.295a49.8,49.8,0,0,0-1.924-9.339c-.794-2.779-1.743-5.826-2.725-9.976a43.759,43.759,0,0,0-1.864-6.084c-.023-.06-.047-.121-.067-.178-1.676-4.16-3.352-5.5-4.311-5.94a14.492,14.492,0,0,1-2.575-1.448A135.408,135.408,0,0,1,458.6,225.161c-8.045-8.045-16.091-27.153-16.091-27.153a30.31,30.31,0,0,1-.5-4.888,32.316,32.316,0,0,0,.5,6.9s8.045,19.108,16.091,27.153a135.4,135.4,0,0,0,15.665,13.168,14.49,14.49,0,0,0,2.595,1.448c.955.436,2.628,1.78,4.311,5.94.02.057.044.117.067.178a43.757,43.757,0,0,1,1.854,6.084c.982,4.15,1.931,7.2,2.725,9.976a49.808,49.808,0,0,1,1.924,9.339c.141,1.4.225,2.927.248,4.643A58.382,58.382,0,0,0,487.728,271.295Z" transform="translate(-441.989 -180.505)"/>
    </g>
    <path id="Path_2119" data-name="Path 2119" d="M598.448,336.5a19.966,19.966,0,0,0-1.341,2.642,15.961,15.961,0,0,0-.6,4.432,35.576,35.576,0,0,1-.952,6.208,6.874,6.874,0,0,1-.335,1.1,2.9,2.9,0,0,1-.392.671,2.857,2.857,0,0,1-.624.566,7.319,7.319,0,0,1-1.136.62c-4.666,2.179-9.755,4.1-14.847,3.352a21.608,21.608,0,0,1-6.178-2.078c-1.844-.9-3.929-1.958-5.84-1.214h0a2.942,2.942,0,0,1-.935.292.891.891,0,0,1-.188-.017c-.63-.121-.63-2.246-.774-2.873-.55-2.407-.634-4.358-.962-6.45a21.163,21.163,0,0,0-.808-3.409,40.258,40.258,0,0,1-1.747-12.631c0-.211-1.509,0-2.011-.02-.127,0-.2-.02-.168-.064a.67.67,0,0,1,.1-.114,1.531,1.531,0,0,1,.6-.3l.4-.117c2.072-.587,4.358-.831,5.907-2.29,1.609-1.505,2.011-3.909,1.941-6.108a36.34,36.34,0,0,1-.308-3.848,11.292,11.292,0,0,0,1.767.151,1.83,1.83,0,0,0,1.475-.67,26.473,26.473,0,0,1,1.448,3.352,23.166,23.166,0,0,0,1.84,4.143,7.016,7.016,0,0,0,6.275,3.215,5.828,5.828,0,0,0,5.189-4.526c.386-2.129-.51-5.193-.489-7.405a8.045,8.045,0,0,0,4.023.131,3.624,3.624,0,0,1,.144.419c.754,2.588,1.76,5.558,4.291,6.477,1.636.59,3.57.147,5.082,1.006a3.265,3.265,0,0,1,.335.221,3.711,3.711,0,0,1,.888.942,7.573,7.573,0,0,1,1.076,3.379A18.746,18.746,0,0,1,598.448,336.5Z" transform="translate(-388.075 -236.312)" fill="#171b2a"/>
    <path id="Path_2120" data-name="Path 2120" d="M605.374,288.705a11.424,11.424,0,0,1-10.265-1.036,29.6,29.6,0,0,0-.55-3.228s10.895-6.872,10.56,1.509A9.368,9.368,0,0,0,605.374,288.705Z" transform="translate(-411.98 -215.491)" opacity="0.1"/>
    <circle id="Ellipse_49" data-name="Ellipse 49" cx="11.398" cy="11.398" r="11.398" transform="translate(177.883 50.513)" fill="#fabdbd"/>
    <path id="Path_2121" data-name="Path 2121" d="M555.06,341.361s22.125-14.08,90.846,1.006,108.614,3.017,108.614,3.017V361.14s-77.1,8.381-106.6,0-71.494-13.215-86.2-.238Z" transform="translate(-385.722 -251.124)" fill="#f86d70"/>
    <path id="Path_2122" data-name="Path 2122" d="M555.06,341.361s22.125-14.08,90.846,1.006,108.614,3.017,108.614,3.017V361.14s-77.1,8.381-106.6,0-71.494-13.215-86.2-.238Z" transform="translate(-385.722 -251.124)" opacity="0.1"/>
    <path id="Path_2123" data-name="Path 2123" d="M557.06,343.361s21.455-14.08,90.176,1.006,107.943,3.017,107.943,3.017l.335,14.415s-76.432,8.381-105.932,0-71.159-14.22-85.865-1.244Z" transform="translate(-387.051 -252.454)" fill="#f86d70"/>
    <path id="Path_2124" data-name="Path 2124" d="M223.163,373.192s-22.125,14.079-90.846-1.006-65.369-3.017-65.369-3.017V353.414s33.858-8.381,63.358,0,71.494,13.215,86.2.238Z" transform="translate(-61.22 -260.629)" fill="#f86d70"/>
    <path id="Path_2125" data-name="Path 2125" d="M223.163,373.192s-22.125,14.079-90.846-1.006-65.369-3.017-65.369-3.017V353.414s33.858-8.381,63.358,0,71.494,13.215,86.2.238Z" transform="translate(-61.22 -260.629)" opacity="0.1"/>
    <path id="Path_2126" data-name="Path 2126" d="M223.21,373.851s-21.455,14.08-90.176-1.006-64.7-3.017-64.7-3.017L68,355.414s33.187-8.381,62.687,0,71.159,14.22,85.865,1.244Z" transform="translate(-61.937 -261.958)" fill="#f86d70"/>
    <path id="Path_2127" data-name="Path 2127" d="M564.087,237.871c-.335-2.092-.852-4.727.9-5.923a3.721,3.721,0,0,1,2.075-.536c3.624-.037,7.087,2.487,10.64,1.75a6,6,0,0,0,2.347-10.684,12.049,12.049,0,0,0-4.874-1.767c-4.5-.925-9.189-1.847-13.627-.67s-8.495,5.156-8.139,9.722a13.732,13.732,0,0,0,2.444,6.034c.885,1.415,4.331,8.045,6,8.146C564.215,244.079,564.318,239.238,564.087,237.871Z" transform="translate(-384.608 -174.073)" fill="#3f3d56"/>
    <path id="Path_2128" data-name="Path 2128" d="M603.374,461.7s-23.131,5.7-30.841,0c0,0-3.352,13.074-2.347,19.778,0,0,16.426,1.006,18.1,2.011,0,0,.335-2.682,2.011-1.341,0,0,5.7-6.7,16.091-.67C606.391,481.478,608.4,465.723,603.374,461.7Z" transform="translate(-395.652 -335.091)" fill="#db2427"/>
    <path id="Path_2129" data-name="Path 2129" d="M593.459,227.479a6.653,6.653,0,0,0-.748-.469,5.984,5.984,0,0,1-3.282,9.812c-3.553.738-7.016-1.787-10.64-1.75a3.721,3.721,0,0,0-2.075.536c-1.75,1.2-1.237,3.832-.9,5.923.221,1.368.131,6.208-2.223,6.078h-.04c.647.788,1.25,1.321,1.716,1.341,2.347.131,2.444-4.693,2.223-6.078-.335-2.092-.848-4.727.9-5.923a3.721,3.721,0,0,1,2.075-.536c3.624-.037,7.087,2.487,10.64,1.75a6,6,0,0,0,2.347-10.684Z" transform="translate(-398.013 -179.075)" opacity="0.1"/>
    <g id="Group_10458" data-name="Group 10458" transform="translate(0.013 29.567)" opacity="0.1">
      <path id="Path_2130" data-name="Path 2130" d="M78.9,175.131s-25.065-10.54-28.35,8.468a4.622,4.622,0,0,0,.67,5.407s.513-1.311,2.937.047a12.6,12.6,0,0,0,2.735,1.11,6.154,6.154,0,0,0,3.9-.208h0s8.243-.446,15.176-11.23c0,0,2.97-1.837,3.121-2.524l-4.968.335s.379,3.637-1.676,5.82c0,0,1.827-5.642.949-5.8-.178-.034-2.625.292-2.625.292s.634,6.322-2.682,9.594c0,0,3.077-6.433,1.736-9.48l-3.664.707s1.006,6.651-2.621,10.523c0,0,2.98-6.839,1.83-10.315l-3.513,1.18s.848,6.51-2.186,9.722c0,0,2.648-8.25,1.4-9.386A18.359,18.359,0,0,0,57.23,181.4s.5,4.693-1.428,6.369c0,0,1.187-5.7.6-5.934,0,0-3.671,2.762-4.787,5.146a13.916,13.916,0,0,1,4.324-5.7,7.718,7.718,0,0,0-4.358.613s1.271-2.417,5.246-1.271c0,0,2.947-2.038,3.537-2.011,0,0-3.761-1.676-6.48-1.472,0,0,2.913-1.676,7.4,1.126l3.5-1.267s-4.857-2.491-7.295-2.481c0,0,3.238-1.25,8.206,2.236l3.584-.734a28.523,28.523,0,0,0-6.735-3.037s3.255-.513,7.771,2.87l2.454-.208S69.8,173.9,68.9,173.475s-.858-.7-.858-.7A11.7,11.7,0,0,1,73.8,175.54S78.875,175.443,78.9,175.131Z" transform="translate(-49.953 -172.217)" fill="#6c63ff"/>
    </g>
    <g id="Group_10459" data-name="Group 10459" transform="translate(3.686 -0.004)" opacity="0.1">
      <path id="Path_2131" data-name="Path 2131" d="M85.257,97.6s-8.9-20.539-21.666-11.119a3.8,3.8,0,0,0-2.682,3.587s1.053-.486,1.716,1.7a10.523,10.523,0,0,0,1.006,2.219,5.028,5.028,0,0,0,2.41,2.088h0s5.149,4.432,15.42,1.974c0,0,2.813.6,3.3.278L81.617,95.69s-1.844,2.377-4.318,2.494c0,0,4.3-2.313,3.869-2.91-.087-.121-1.723-1.321-1.723-1.321s-3.228,4.117-7.04,4.18c0,0,5.494-2.072,6.433-4.643L76.26,91.815s-3.2,4.522-7.553,4.757c0,0,5.665-2.347,6.963-5.082l-2.759-1.3s-3.2,4.358-6.829,4.522c0,0,6.272-3.392,6.175-4.777a14.567,14.567,0,0,0-3.429-.979s-2.37,3.067-4.485,2.98c0,0,3.952-2.712,3.734-3.185,0,0-3.755-.449-5.776.335a11.44,11.44,0,0,1,5.816-.919,6.284,6.284,0,0,0-2.93-2.112s2.132-.714,3.842,2.233a14.538,14.538,0,0,1,3.248.815,13.711,13.711,0,0,0-3.017-4.566s2.682.67,3.755,4.884l2.8,1.244s-1.465-4.247-2.937-5.625c0,0,2.638,1.1,3.6,6l2.544,1.606a23.369,23.369,0,0,0-2.269-5.625s2.226,1.545,2.984,6.128l1.576,1.274s-.771-2.729-1.063-3.493-.107-.905-.107-.905a9.658,9.658,0,0,1,1.84,4.924S85.076,97.772,85.257,97.6Z" transform="translate(-60.91 -84.006)" fill="#6c63ff"/>
    </g>
  </g>
</svg>
