<svg xmlns="http://www.w3.org/2000/svg" width="64" height="64" viewBox="0 0 64 64">
  <g id="Group_10428" data-name="Group 10428" transform="translate(-209 -793)">
    <circle id="Ellipse_36" data-name="Ellipse 36" cx="32" cy="32" r="32" transform="translate(209 793)" fill="#fff"/>
    <g id="Group_10589" data-name="Group 10589" transform="translate(-109.129 545.11)">
      <path id="Path_2135" data-name="Path 2135" d="M357.239,292.185H364.2V280.622h-6.961Zm3.493-7.45a1.632,1.632,0,1,1-1.154.478,1.632,1.632,0,0,1,1.154-.478Z" fill="#171b2a"/>
      <path id="Path_2136" data-name="Path 2136" d="M343.114,291.981l-2.065,5.712-.44,1.215-.31-1.215-.449-1.771h0a2.507,2.507,0,0,0,.865-1.763c0-.759-.653-.817-1.281-.817s-1.281.066-1.281.817a2.507,2.507,0,0,0,.865,1.763l-.441,1.754-.31,1.208-.44-1.208-2.073-5.712c-2.619.946-4.463,1.558-5.712,2.04-2.432.906-2.889,1.322-2.889,2.529v6.692h0a2.888,2.888,0,0,0,2.889,2.889H348.81a2.89,2.89,0,0,0,2.889-2.889v-6.691c.008-1.844-.972-1.8-8.585-4.553Z" fill="#e86365"/>
      <path id="Path_2137" data-name="Path 2137" d="M374.058,272.9,351.421,254.4a2.236,2.236,0,0,0-2.831,0l-8.74,7.14v-4.194a2.448,2.448,0,0,0-4.9,0v8.16l-8.976,7.344h0a2.253,2.253,0,0,0,2.807,3.525L350,259.022l21.216,17.348a2.241,2.241,0,0,0,2.84-3.468Z" fill="#171b2a"/>
      <path id="Path_2138" data-name="Path 2138" d="M330,278.639v12.787l1.559-.547,2.448-.874h0a7,7,0,0,1-1.036-2.26.352.352,0,0,0-.041-.2h0a5.277,5.277,0,0,1-1.2-3.769,4.115,4.115,0,0,1,.433-1.436,8.308,8.308,0,0,1,.253-3.15c.865-3.085,4.357-4.9,7.238-4.9a5.626,5.626,0,0,1,4.463,1.991,2.355,2.355,0,0,1,.155.22,4.306,4.306,0,0,1,1.632,1.469,6.946,6.946,0,0,1,.816,4.463,3.914,3.914,0,0,1,.367,1.5,5.892,5.892,0,0,1-1.379,3.754,7.172,7.172,0,0,1-1.052,2.317l2.5.881a29.266,29.266,0,0,1,4.9,1.959,4.032,4.032,0,0,1,2.1,3.745v1.11H370V278.639l-20-16.345Zm25.713,14.321V279.088h10.053v14.688H355.714Z" fill="#171b2a"/>
      <path id="Path_2139" data-name="Path 2139" d="M335.257,286.48c.09.1.09.514.122.645h0a4.414,4.414,0,0,0,1.094,2,3.913,3.913,0,0,0,1.134.816,4.026,4.026,0,0,0,1.73.391,4.083,4.083,0,0,0,1.967-.538,4.027,4.027,0,0,0,.954-.734,4.664,4.664,0,0,0,1.216-2.53c.939-.995,1.771-2.636.718-3.574,0,0,.963-4.08-1.632-4.545h0a4.031,4.031,0,0,0-.294-.628,3.261,3.261,0,0,0-2.578-1.1c-2.057,0-4.391,1.379-4.9,3.166h0a6.8,6.8,0,0,0,0,3.1s-1.616,1.134.465,3.533Z" fill="#e86365"/>
    </g>
  </g>
</svg>
