<svg xmlns="http://www.w3.org/2000/svg" width="74.534" height="64" viewBox="0 0 74.534 64">
  <g id="icon" transform="translate(-199.466 -793)">
    <circle id="Ellipse_36" data-name="Ellipse 36" cx="32" cy="32" r="32" transform="translate(210 793)" fill="#fff5e4"/>
    <g id="Group_10437" data-name="Group 10437" transform="translate(178.692 770.98)">
      <path id="Path_2074" data-name="Path 2074" d="M59.176,38.4H21.921a1.146,1.146,0,0,0-1.147,1.147V76.833a1.155,1.155,0,0,0,1.147,1.147H59.176a1.147,1.147,0,0,0,1.147-1.147V39.547A1.146,1.146,0,0,0,59.176,38.4ZM23.068,65.837l6.354-8.412,6.584,8.717a1.125,1.125,0,0,0,.91.459,1.14,1.14,0,0,0,.918-.459L48.065,52.6l10,13.237v2.515H23.068ZM58.06,40.694V62.028L48.975,50a1.122,1.122,0,0,0-.91-.459,1.139,1.139,0,0,0-.917.459L36.916,63.55,30.34,54.833a1.162,1.162,0,0,0-1.631-.2,1.126,1.126,0,0,0-.2.2l-5.437,7.195V40.694ZM23.068,75.686v-5.04H58.06v5.078Z"/>
      <path id="Path_2075" data-name="Path 2075" d="M32.9,51.361a3.961,3.961,0,1,0-3.954-3.969V47.4A3.961,3.961,0,0,0,32.9,51.361Zm0-5.62a1.667,1.667,0,1,1-1.66,1.674V47.4A1.667,1.667,0,0,1,32.9,45.741Z" fill="#e86365"/>
      <path id="Path_2076" data-name="Path 2076" d="M64.751,49.059a1.147,1.147,0,0,0,0,2.294h1.827a1.146,1.146,0,0,0,1.147-1.147V27.5a1.147,1.147,0,0,0-1.147-1.147H45.626A1.148,1.148,0,0,0,44.479,27.5v7.2a1.147,1.147,0,1,0,2.294,0V28.665H65.431V49.059Z"/>
      <path id="Path_2077" data-name="Path 2077" d="M69.53,33.269h5.276a1.147,1.147,0,0,0,1.147-1.147V26.845A1.147,1.147,0,0,0,74.806,25.7H69.53a1.147,1.147,0,0,0-1.147,1.147v5.277A1.147,1.147,0,0,0,69.53,33.269Zm1.147-5.276h2.982v2.982H70.646Z" fill="#e86365"/>
      <path id="Path_2078" data-name="Path 2078" d="M68.352,41.489A1.147,1.147,0,0,0,69.5,42.636h5.277a1.147,1.147,0,0,0,1.147-1.147V36.236a1.147,1.147,0,0,0-1.147-1.147H69.5a1.147,1.147,0,0,0-1.147,1.147Zm2.294-4.122h2.983v2.975H70.646Z" fill="#e86365"/>
      <path id="Path_2079" data-name="Path 2079" d="M68.352,50.864A1.147,1.147,0,0,0,69.5,52.011h5.277a1.147,1.147,0,0,0,1.147-1.147V45.588a1.147,1.147,0,0,0-1.147-1.147H69.5a1.147,1.147,0,0,0-1.147,1.147Zm2.294-4.129h2.983v2.982H70.646Z" fill="#e86365"/>
      <path id="Path_2080" data-name="Path 2080" d="M42.353,33.269A1.147,1.147,0,0,0,43.5,32.122V26.845A1.147,1.147,0,0,0,42.353,25.7H37.077a1.147,1.147,0,0,0-1.147,1.147v5.277a1.147,1.147,0,0,0,1.147,1.147Zm-4.129-5.276h2.982v2.982H38.224Z" fill="#e86365"/>
      <path id="Path_2081" data-name="Path 2081" d="M78.079,22.02H34.125a1.155,1.155,0,0,0-1.147,1.147V34.706a1.147,1.147,0,0,0,2.294,0V24.314h41.66V53.372H64.7a1.147,1.147,0,0,0,0,2.294H78.079a1.154,1.154,0,0,0,1.147-1.147V23.167A1.155,1.155,0,0,0,78.079,22.02Z"/>
    </g>
  </g>
</svg>
