<svg xmlns="http://www.w3.org/2000/svg" width="71" height="75" viewBox="0 0 71 75">
  <g id="icon" transform="translate(-203 -782)">
    <circle id="Ellipse_36" data-name="Ellipse 36" cx="32" cy="32" r="32" transform="translate(210 793)" fill="#fff5e4"/>
    <g id="Group_10436" data-name="Group 10436" transform="translate(201 780)">
      <rect id="Rectangle_3443" data-name="Rectangle 3443" width="2" height="2" transform="translate(13 44)"/>
      <rect id="Rectangle_3444" data-name="Rectangle 3444" width="34" height="2" transform="translate(17 44)"/>
      <rect id="Rectangle_3445" data-name="Rectangle 3445" width="2" height="2" transform="translate(13 40)"/>
      <rect id="Rectangle_3446" data-name="Rectangle 3446" width="34" height="2" transform="translate(17 40)"/>
      <rect id="Rectangle_3447" data-name="Rectangle 3447" width="2" height="2" transform="translate(13 48)"/>
      <rect id="Rectangle_3448" data-name="Rectangle 3448" width="34" height="2" transform="translate(17 48)"/>
      <path id="Path_2070" data-name="Path 2070" d="M55,2H14A5,5,0,0,0,9,7V54H3a1,1,0,0,0-1,1,7.008,7.008,0,0,0,7,7H54a1,1,0,0,0,1-1V10h6a1,1,0,0,0,1-1A7.008,7.008,0,0,0,55,2ZM9,60a5.009,5.009,0,0,1-4.9-4H44.11a6.946,6.946,0,0,0,3,4Zm44,0c-2.99,0-7-2.47-7-5a1,1,0,0,0-1-1H11V7a3.009,3.009,0,0,1,3-3H53ZM55,8V4a5.009,5.009,0,0,1,4.9,4Z"/>
      <path id="Path_2071" data-name="Path 2071" d="M32,6A16,16,0,1,0,48,22,16,16,0,0,0,32,6Zm0,30A14,14,0,1,1,46,22,14,14,0,0,1,32,36Z"/>
      <g id="Group_10435" data-name="Group 10435">
        <path id="Path_2072" data-name="Path 2072" d="M32.088,25.975l-.886-.02a.671.671,0,0,1-.623-.443.684.684,0,0,1,.181-.745L32.833,22.9V15.288a.606.606,0,0,0-.6-.6H24.158a.606.606,0,0,0-.6.6V28.712a.606.606,0,0,0,.6.6h2.778V26.579a.244.244,0,0,1,.241-.242H29.27a.245.245,0,0,1,.242.242V29.3h2.7a1.043,1.043,0,0,1-.081-.423v-2.9Zm-6.9-8.091a.18.18,0,0,1,.181-.181h1.872a.181.181,0,0,1,.181.181v1.872a.18.18,0,0,1-.181.181H25.366a.18.18,0,0,1-.181-.181ZM27.459,23.8a.18.18,0,0,1-.181.181H25.406a.18.18,0,0,1-.181-.181V21.93a.181.181,0,0,1,.181-.182h1.872a.181.181,0,0,1,.181.182Zm1.469-5.937a.18.18,0,0,1,.181-.181H31a.18.18,0,0,1,.181.181v1.872a.18.18,0,0,1-.181.181H29.129a.181.181,0,0,1-.181-.181V17.864Zm.222,6.118a.181.181,0,0,1-.182-.181V21.93a.181.181,0,0,1,.182-.182h1.871a.181.181,0,0,1,.181.182V23.8a.18.18,0,0,1-.181.181Z" fill="#e86365"/>
        <path id="Path_2073" data-name="Path 2073" d="M40.159,23.922V21.2h-1.49v1.348L36.7,20.742a.347.347,0,0,0-.443,0l-5.031,4.529,1.549.04v3.562a.4.4,0,0,0,.4.4h2.214V27.243a.446.446,0,0,1,.442-.443H37.16a.447.447,0,0,1,.443.443v2.033H39.8a.4.4,0,0,0,.4-.4V25.391l1.469-.1Zm-2.738.523a.317.317,0,0,1-.322.322H35.892a.318.318,0,0,1-.322-.322v-.322a.318.318,0,0,1,.322-.322H37.1a.317.317,0,0,1,.322.322Z" fill="#e86365"/>
      </g>
    </g>
  </g>
</svg>
