<svg xmlns="http://www.w3.org/2000/svg" width="69.866" height="70" viewBox="0 0 69.866 70">
  <g id="icon" transform="translate(-204.134 -787)">
    <circle id="Ellipse_36" data-name="Ellipse 36" cx="32" cy="32" r="32" transform="translate(210 793)" fill="#fff5e4"/>
    <g id="Group_10439" data-name="Group 10439" transform="translate(183.338 751.793)">
      <path id="Path_2082" data-name="Path 2082" d="M56.791,67.508h7.124a.941.941,0,0,1,.97.969v7.117a.948.948,0,0,1-.97.977H56.791a.947.947,0,0,1-.969-.977V68.477A.941.941,0,0,1,56.791,67.508Zm0-2.075a3.059,3.059,0,0,0-3.042,3.043v7.117a3.065,3.065,0,0,0,3.042,3.05h7.124a3.063,3.063,0,0,0,3.043-3.05V68.476a3.057,3.057,0,0,0-3.043-3.043Z" fill-rule="evenodd"/>
      <path id="Path_2083" data-name="Path 2083" d="M28.875,40.43H33.16a.6.6,0,0,1,.615.631v6.907L28.255,52.4V41.061A.606.606,0,0,1,28.875,40.43ZM50,37.6l26.047,20.9a2.406,2.406,0,0,1,.672,3.515,2.134,2.134,0,0,1-3.148.277L50.649,43.913a1.041,1.041,0,0,0-1.295,0L26.431,62.286a2.046,2.046,0,0,1-3.144-.276c-.77-.865-.8-2.335.667-3.516Zm-.648-2.131L35.84,46.31V41.061a2.707,2.707,0,0,0-2.681-2.7H28.874a2.708,2.708,0,0,0-2.685,2.7V54.054l-3.527,2.831A4.647,4.647,0,0,0,21.591,63.2a4.137,4.137,0,0,0,2.662,1.727A4.409,4.409,0,0,0,27.724,63.9L50,46.044,72.28,63.9a4.408,4.408,0,0,0,3.467,1.022A4.117,4.117,0,0,0,78.411,63.2a4.647,4.647,0,0,0-1.068-6.314L50.649,35.464A.945.945,0,0,0,49.354,35.464Z" fill-rule="evenodd"/>
      <path id="Path_2084" data-name="Path 2084" d="M42.365,65.438a6.7,6.7,0,0,0-6.7,6.676V88.659H28.255V67.784a1.033,1.033,0,1,0-2.064,0V89.689a1.037,1.037,0,0,0,1.035,1.042h9.482a1.039,1.039,0,0,0,1.034-1.042V72.114a4.621,4.621,0,0,1,9.242,0V89.69a1.035,1.035,0,0,0,1.037,1.042H72.782a1.04,1.04,0,0,0,1.035-1.042v-21.9a1.036,1.036,0,1,0-2.069,0V88.66H49.056V72.114A6.69,6.69,0,0,0,42.365,65.438Z"/>
      <circle id="Ellipse_38" data-name="Ellipse 38" cx="11.647" cy="11.647" r="11.647" transform="translate(38.354 69.636)" fill="#e86365"/>
      <g id="Group_10438" data-name="Group 10438">
        <rect id="Rectangle_3449" data-name="Rectangle 3449" width="22.476" height="22.476" transform="translate(38.762 71.09)" fill="none"/>
        <path id="Path_2085" data-name="Path 2085" d="M45.989,75.952v1.727c1.009.053,3.586-.159,3.985,1.089H45.989v1.541H50.16a2.526,2.526,0,0,1-1.966,1.435l-2.205.053-.027,1.541,4.623,5.367h2.391l-4.357-5.341a3.93,3.93,0,0,0,3.693-3.135l1.673.054V78.821H52.179a2.459,2.459,0,0,0-.505-1.355h2.365V75.952Z" fill="#fff" fill-rule="evenodd"/>
      </g>
    </g>
  </g>
</svg>
