<svg xmlns="http://www.w3.org/2000/svg" width="40" height="34.286" viewBox="0 0 40 34.286">
  <g id="Group_10142" data-name="Group 10142" transform="translate(-5.5 -12)">
    <path id="Path_1950" data-name="Path 1950" d="M44.548,57.333H43.6V44.952A.952.952,0,0,0,42.644,44h-3.81a.952.952,0,0,0-.952.951h0v1.9H13.119v-1.9A.952.952,0,0,0,12.168,44H8.357a.952.952,0,0,0-.952.951h0V57.333H6.452a.952.952,0,0,0-.952.951h0V62.1a.952.952,0,0,0,.951.952h38.1A.952.952,0,0,0,45.5,62.1h0v-3.81a.952.952,0,0,0-.951-.952ZM39.786,45.9h1.9V57.333h-1.9Zm-1.9,11.429h-1.9V48.762h1.9Zm-5.714,0V48.762h1.9v8.571Zm-3.81,0V48.762h1.9v8.571Zm-3.81,0V48.762h1.9v8.571Zm-3.81,0V48.762h1.9v8.571Zm-3.81,0V48.762h1.9v8.571Zm-1.9-8.571v8.571h-1.9V48.762ZM9.31,45.9h1.9V57.333H9.31ZM43.6,61.143H7.4v-1.9H43.6Z" transform="translate(0 -16.762)" fill="#7b7b7b"/>
    <path id="Path_1951" data-name="Path 1951" d="M31.4,21.524h5.714V28.19h1.9V21.524h5.714V28.19h1.9V12.952A.952.952,0,0,0,45.691,12H30.452a.952.952,0,0,0-.952.951h0V28.19h1.9Zm13.333-1.9H39.024V13.9h5.714ZM37.119,13.9v5.714H31.4V13.9Z" transform="translate(-12.571 0)" fill="#7b7b7b"/>
  </g>
</svg>
