<svg xmlns="http://www.w3.org/2000/svg" width="40.1" height="38.878" viewBox="0 0 40.1 38.878">
  <g id="Group_10144" data-name="Group 10144" transform="translate(0 -8)">
    <path id="Path_1954" data-name="Path 1954" d="M153.475,136.888a.588.588,0,0,0-1.175,0v.627a.588.588,0,0,0,1.175,0Z" transform="translate(-140.369 -118.25)" fill="#7b7b7b"/>
    <path id="Path_1955" data-name="Path 1955" d="M153.475,168.888a.588.588,0,1,0-1.175,0v.627a.588.588,0,1,0,1.175,0Z" transform="translate(-140.369 -147.743)" fill="#7b7b7b"/>
    <path id="Path_1956" data-name="Path 1956" d="M152.888,200.4a.587.587,0,0,0-.588.588v.627a.588.588,0,1,0,1.175,0v-.627A.582.582,0,0,0,152.888,200.4Z" transform="translate(-140.369 -177.328)" fill="#7b7b7b"/>
    <path id="Path_1957" data-name="Path 1957" d="M193.575,136.888a.588.588,0,0,0-1.175,0v.627a.588.588,0,0,0,1.175,0Z" transform="translate(-177.328 -118.25)" fill="#7b7b7b"/>
    <path id="Path_1958" data-name="Path 1958" d="M193.575,168.888a.588.588,0,1,0-1.175,0v.627a.588.588,0,1,0,1.175,0Z" transform="translate(-177.328 -147.743)" fill="#7b7b7b"/>
    <path id="Path_1959" data-name="Path 1959" d="M192.988,200.4a.587.587,0,0,0-.588.588v.627a.588.588,0,1,0,1.175,0v-.627A.587.587,0,0,0,192.988,200.4Z" transform="translate(-177.328 -177.328)" fill="#7b7b7b"/>
    <path id="Path_1960" data-name="Path 1960" d="M113.475,136.888a.588.588,0,0,0-1.175,0v.627a.588.588,0,0,0,1.175,0Z" transform="translate(-103.503 -118.25)" fill="#7b7b7b"/>
    <path id="Path_1961" data-name="Path 1961" d="M113.475,168.888a.588.588,0,1,0-1.175,0v.627a.588.588,0,1,0,1.175,0Z" transform="translate(-103.503 -147.743)" fill="#7b7b7b"/>
    <path id="Path_1962" data-name="Path 1962" d="M112.788,200.4a.587.587,0,0,0-.588.588v.627a.588.588,0,1,0,1.175,0v-.627A.577.577,0,0,0,112.788,200.4Z" transform="translate(-103.411 -177.328)" fill="#7b7b7b"/>
    <path id="Path_1963" data-name="Path 1963" d="M38.58,29.346H9.338v-.705h.039a.588.588,0,1,0,0-1.175H8.123a.588.588,0,1,0,0,1.175h.039v.705H6.2v-17.3a2.867,2.867,0,1,1,5.734,0v.392A4.362,4.362,0,0,0,8.21,16.163H7.5a.588.588,0,0,0,0,1.175h10.05a.588.588,0,0,0,0-1.175H16.85a4.4,4.4,0,0,0-3.744-3.729v-.392a4.042,4.042,0,0,0-8.084,0v17.3H3.063v-.705H3.1a.588.588,0,1,0,0-1.175H1.849a.588.588,0,1,0,0,1.175H1.88v.705H1.528a1.531,1.531,0,0,0,0,3.063h.979v2.554A9.936,9.936,0,0,0,4.285,40.65H3.721a.588.588,0,1,0,0,1.175H5.248a10.14,10.14,0,0,0,3.408,2.366,3.2,3.2,0,0,1-.5.572,4.418,4.418,0,0,1-3.094.917.588.588,0,0,0-.149,1.167,5.511,5.511,0,0,0,4.011-1.191A4.456,4.456,0,0,0,9.8,44.591a10.035,10.035,0,0,0,2.718.376H27.59a10.035,10.035,0,0,0,2.718-.376,4.615,4.615,0,0,0,.877,1.065,5.352,5.352,0,0,0,3.5,1.222c.3,0,.486-.024.509-.024a.588.588,0,1,0-.149-1.167,4.361,4.361,0,0,1-3.086-.909,3,3,0,0,1-.509-.58,9.987,9.987,0,0,0,3.408-2.366h1.52a.588.588,0,1,0,0-1.175h-.564a9.955,9.955,0,0,0,1.778-5.687V32.417h.979a1.535,1.535,0,0,0,.008-3.071ZM15.644,16.163H9.4a3.176,3.176,0,0,1,6.243,0ZM9.165,43.126a8.913,8.913,0,0,1-2.186-1.3H9.4A6.306,6.306,0,0,1,9.165,43.126Zm18.425.666H12.518a8.827,8.827,0,0,1-2.24-.29,7.254,7.254,0,0,0,.3-1.676H29.533a7.254,7.254,0,0,0,.3,1.676A8.827,8.827,0,0,1,27.59,43.792Zm3.353-.666a6.306,6.306,0,0,1-.235-1.3h2.421A8.675,8.675,0,0,1,30.943,43.126Zm5.476-8.163a8.763,8.763,0,0,1-2.084,5.687H5.773A8.779,8.779,0,0,1,3.69,34.963V32.409H36.418Zm2.162-3.729H1.528a.353.353,0,0,1,0-.705H38.572a.353.353,0,0,1,.008.705Z" fill="#7b7b7b"/>
  </g>
</svg>
