<svg xmlns="http://www.w3.org/2000/svg" width="42" height="30" viewBox="0 0 42 30">
  <g id="Group_10143" data-name="Group 10143" transform="translate(-4 -12)">
    <path id="Path_1952" data-name="Path 1952" d="M43.75,27H40V24.75a.8.8,0,0,0-.675-.75l-10.5-1.5L18.325,21a.808.808,0,0,0-.6.15.852.852,0,0,0-.225.6V27H10.75a.709.709,0,0,1-.75-.75V15a3,3,0,0,0-6,0V41.25a.709.709,0,0,0,.75.75h4.5a.709.709,0,0,0,.75-.75v-7.5a.709.709,0,0,1,.75-.75h28.5a.709.709,0,0,1,.75.75v7.5a.709.709,0,0,0,.75.75h4.5a.709.709,0,0,0,.75-.75v-12A2.21,2.21,0,0,0,43.75,27ZM19,22.575,28.675,24,38.5,25.425V31.5H19ZM8.5,33.75V40.5h-3V15a1.5,1.5,0,0,1,3,0V26.25a2.21,2.21,0,0,0,2.25,2.25H17.5v3H10.75A2.21,2.21,0,0,0,8.5,33.75Zm36,6.75h-3V33.75a2.185,2.185,0,0,0-1.5-2.1V28.5h3.75a.709.709,0,0,1,.75.75Z" fill="#7b7b7b"/>
    <path id="Path_1953" data-name="Path 1953" d="M16,23a3,3,0,1,0,3,3A3.009,3.009,0,0,0,16,23Zm0,4.5A1.5,1.5,0,1,1,17.5,26,1.5,1.5,0,0,1,16,27.5Z" transform="translate(-2.25 -2.75)" fill="#7b7b7b"/>
  </g>
</svg>
