<svg xmlns="http://www.w3.org/2000/svg" width="32.571" height="36" viewBox="0 0 32.571 36">
  <g id="Group_10148" data-name="Group 10148" transform="translate(-12 -7)">
    <path id="Path_1974" data-name="Path 1974" d="M46,43H28.857A.857.857,0,0,1,28,42.143V7.857A.857.857,0,0,1,28.857,7H46a.857.857,0,0,1,.857.857V42.143A.857.857,0,0,1,46,43ZM29.714,41.286H45.143V8.714H29.714Z" transform="translate(-9.143)" fill="#7b7b7b"/>
    <path id="Path_1975" data-name="Path 1975" d="M75.714,61.286H68.857A.857.857,0,0,1,68,60.429V39.857A.857.857,0,0,1,68.857,39h6.857a.857.857,0,0,1,.857.857V60.429A.857.857,0,0,1,75.714,61.286Zm-6-1.714h5.143V40.714H69.714Z" transform="translate(-32 -18.286)" fill="#7b7b7b"/>
    <path id="Path_1976" data-name="Path 1976" d="M37.714,15H36v1.714h1.714V15Z" transform="translate(-13.714 -4.571)" fill="#7b7b7b"/>
    <path id="Path_1977" data-name="Path 1977" d="M37.714,23H36v1.714h1.714V23Z" transform="translate(-13.714 -9.143)" fill="#7b7b7b"/>
    <path id="Path_1978" data-name="Path 1978" d="M37.714,31H36v1.714h1.714V31Z" transform="translate(-13.714 -13.714)" fill="#7b7b7b"/>
    <path id="Path_1979" data-name="Path 1979" d="M37.714,39H36v1.714h1.714V39Z" transform="translate(-13.714 -18.286)" fill="#7b7b7b"/>
    <path id="Path_1980" data-name="Path 1980" d="M37.714,47H36v1.714h1.714V47Z" transform="translate(-13.714 -22.857)" fill="#7b7b7b"/>
    <path id="Path_1981" data-name="Path 1981" d="M37.714,55H36v1.714h1.714V55Z" transform="translate(-13.714 -27.429)" fill="#7b7b7b"/>
    <path id="Path_1982" data-name="Path 1982" d="M37.714,63H36v1.714h1.714V63Z" transform="translate(-13.714 -32)" fill="#7b7b7b"/>
    <path id="Path_1983" data-name="Path 1983" d="M37.714,71H36v1.714h1.714V71Z" transform="translate(-13.714 -36.571)" fill="#7b7b7b"/>
    <path id="Path_1984" data-name="Path 1984" d="M45.714,15H44v1.714h1.714V15Z" transform="translate(-18.286 -4.571)" fill="#7b7b7b"/>
    <path id="Path_1985" data-name="Path 1985" d="M45.714,23H44v1.714h1.714V23Z" transform="translate(-18.286 -9.143)" fill="#7b7b7b"/>
    <path id="Path_1986" data-name="Path 1986" d="M45.714,31H44v1.714h1.714V31Z" transform="translate(-18.286 -13.714)" fill="#7b7b7b"/>
    <path id="Path_1987" data-name="Path 1987" d="M45.714,39H44v1.714h1.714V39Z" transform="translate(-18.286 -18.286)" fill="#7b7b7b"/>
    <path id="Path_1988" data-name="Path 1988" d="M45.714,47H44v1.714h1.714V47Z" transform="translate(-18.286 -22.857)" fill="#7b7b7b"/>
    <path id="Path_1989" data-name="Path 1989" d="M45.714,55H44v1.714h1.714V55Z" transform="translate(-18.286 -27.429)" fill="#7b7b7b"/>
    <path id="Path_1990" data-name="Path 1990" d="M45.714,63H44v1.714h1.714V63Z" transform="translate(-18.286 -32)" fill="#7b7b7b"/>
    <path id="Path_1991" data-name="Path 1991" d="M53.714,15H52v1.714h1.714V15Z" transform="translate(-22.857 -4.571)" fill="#7b7b7b"/>
    <path id="Path_1992" data-name="Path 1992" d="M53.714,23H52v1.714h1.714V23Z" transform="translate(-22.857 -9.143)" fill="#7b7b7b"/>
    <path id="Path_1993" data-name="Path 1993" d="M53.714,31H52v1.714h1.714V31Z" transform="translate(-22.857 -13.714)" fill="#7b7b7b"/>
    <path id="Path_1994" data-name="Path 1994" d="M53.714,39H52v1.714h1.714V39Z" transform="translate(-22.857 -18.286)" fill="#7b7b7b"/>
    <path id="Path_1995" data-name="Path 1995" d="M53.714,47H52v1.714h1.714V47Z" transform="translate(-22.857 -22.857)" fill="#7b7b7b"/>
    <path id="Path_1996" data-name="Path 1996" d="M53.714,55H52v1.714h1.714V55Z" transform="translate(-22.857 -27.429)" fill="#7b7b7b"/>
    <path id="Path_1997" data-name="Path 1997" d="M53.714,63H52v1.714h1.714V63Z" transform="translate(-22.857 -32)" fill="#7b7b7b"/>
    <path id="Path_1998" data-name="Path 1998" d="M61.714,15H60v1.714h1.714V15Z" transform="translate(-27.429 -4.571)" fill="#7b7b7b"/>
    <path id="Path_1999" data-name="Path 1999" d="M61.714,23H60v1.714h1.714V23Z" transform="translate(-27.429 -9.143)" fill="#7b7b7b"/>
    <path id="Path_2000" data-name="Path 2000" d="M61.714,31H60v1.714h1.714V31Z" transform="translate(-27.429 -13.714)" fill="#7b7b7b"/>
    <path id="Path_2001" data-name="Path 2001" d="M61.714,39H60v1.714h1.714V39Z" transform="translate(-27.429 -18.286)" fill="#7b7b7b"/>
    <path id="Path_2002" data-name="Path 2002" d="M61.714,47H60v1.714h1.714V47Z" transform="translate(-27.429 -22.857)" fill="#7b7b7b"/>
    <path id="Path_2003" data-name="Path 2003" d="M61.714,55H60v1.714h1.714V55Z" transform="translate(-27.429 -27.429)" fill="#7b7b7b"/>
    <path id="Path_2004" data-name="Path 2004" d="M61.714,63H60v1.714h1.714V63Z" transform="translate(-27.429 -32)" fill="#7b7b7b"/>
    <path id="Path_2005" data-name="Path 2005" d="M61.714,71H60v1.714h1.714V71Z" transform="translate(-27.429 -36.571)" fill="#7b7b7b"/>
    <path id="Path_2006" data-name="Path 2006" d="M77.714,47H76v1.714h1.714V47Z" transform="translate(-36.571 -22.857)" fill="#7b7b7b"/>
    <path id="Path_2007" data-name="Path 2007" d="M77.714,55H76v1.714h1.714V55Z" transform="translate(-36.571 -27.429)" fill="#7b7b7b"/>
    <path id="Path_2008" data-name="Path 2008" d="M77.714,63H76v1.714h1.714V63Z" transform="translate(-36.571 -32)" fill="#7b7b7b"/>
    <path id="Path_2009" data-name="Path 2009" d="M77.714,71H76v1.714h1.714V71Z" transform="translate(-36.571 -36.571)" fill="#7b7b7b"/>
    <path id="Path_2010" data-name="Path 2010" d="M19.714,61.286H12.857A.857.857,0,0,1,12,60.429V39.857A.857.857,0,0,1,12.857,39h6.857a.857.857,0,0,1,.857.857V60.429A.857.857,0,0,1,19.714,61.286Zm-6-1.714h5.143V40.714H13.714Z" transform="translate(0 -18.286)" fill="#7b7b7b"/>
    <path id="Path_2011" data-name="Path 2011" d="M21.714,47H20v1.714h1.714V47Z" transform="translate(-4.571 -22.857)" fill="#7b7b7b"/>
    <path id="Path_2012" data-name="Path 2012" d="M21.714,55H20v1.714h1.714V55Z" transform="translate(-4.571 -27.429)" fill="#7b7b7b"/>
    <path id="Path_2013" data-name="Path 2013" d="M21.714,63H20v1.714h1.714V63Z" transform="translate(-4.571 -32)" fill="#7b7b7b"/>
    <path id="Path_2014" data-name="Path 2014" d="M21.714,71H20v1.714h1.714V71Z" transform="translate(-4.571 -36.571)" fill="#7b7b7b"/>
    <path id="Path_2015" data-name="Path 2015" d="M48.286,79.571H44.857A.857.857,0,0,1,44,78.714V71.857A.857.857,0,0,1,44.857,71h3.429a.857.857,0,0,1,.857.857v6.857A.857.857,0,0,1,48.286,79.571Zm-2.571-1.714h1.714V72.714H45.714Z" transform="translate(-18.286 -36.571)" fill="#7b7b7b"/>
  </g>
</svg>
