<svg xmlns="http://www.w3.org/2000/svg" width="38.08" height="34" viewBox="0 0 38.08 34">
  <g id="Group_10146" data-name="Group 10146" transform="translate(-4 -7)">
    <path id="Path_1970" data-name="Path 1970" d="M38.68,11.08H35.96V9.72a2.72,2.72,0,1,0-5.44,0v1.36H25.76V9.72a2.72,2.72,0,1,0-5.44,0v1.36H15.56V9.72a2.72,2.72,0,1,0-5.44,0v1.36H7.4A3.4,3.4,0,0,0,4,14.48V37.6A3.4,3.4,0,0,0,7.4,41H35.96a.685.685,0,0,0,.481-.2l5.44-5.44a.758.758,0,0,0,.2-.481V14.48A3.4,3.4,0,0,0,38.68,11.08Zm-6.8-1.36a1.36,1.36,0,1,1,2.72,0v1.36H31.88Zm-10.2,0a1.36,1.36,0,1,1,2.72,0v1.36H21.68Zm-10.2,0a1.36,1.36,0,1,1,2.72,0v1.36H11.48ZM7.4,12.44h2.72V13.8a2.72,2.72,0,1,0,5.44,0H14.2a1.36,1.36,0,0,1-2.72,0V12.44h8.84V13.8a2.72,2.72,0,1,0,5.44,0H24.4a1.36,1.36,0,0,1-2.72,0V12.44h8.84V13.8a2.72,2.72,0,1,0,5.44,0H34.6a1.36,1.36,0,1,1-2.72,0V12.44h6.8a2.042,2.042,0,0,1,2.04,2.04v3.4H5.36v-3.4A2.042,2.042,0,0,1,7.4,12.44ZM5.36,37.6V19.24H40.72V34.2H35.96a.68.68,0,0,0-.68.68v4.76H7.4A2.042,2.042,0,0,1,5.36,37.6Zm31.28,1.078V35.56h3.118ZM21.68,28.08H24.4V30.8H21.68Zm0,5.44H24.4v2.72H21.68Zm0-10.88H24.4v2.72H21.68Zm-6.12,5.44h2.72V30.8H15.56Zm0,5.44h2.72v2.72H15.56Zm0-10.88h2.72v2.72H15.56ZM9.44,28.08h2.72V30.8H9.44Zm0,5.44h2.72v2.72H9.44Zm0-10.88h2.72v2.72H9.44ZM27.8,28.08h2.72V30.8H27.8Zm0,5.44h2.72v2.72H27.8Zm0-10.88h2.72v2.72H27.8Zm8.84,8.16H33.92V28.08h2.72Zm0-5.44H33.92V22.64h2.72Z" fill="#7b7b7b"/>
  </g>
</svg>
