<svg xmlns="http://www.w3.org/2000/svg" width="69.865" height="74" viewBox="0 0 69.865 74">
  <g id="Group_10428" data-name="Group 10428" transform="translate(-204.135 -783)">
    <circle id="Ellipse_36" data-name="Ellipse 36" cx="32" cy="32" r="32" transform="translate(210 793)" fill="#fff5e4"/>
    <g id="Group_10431" data-name="Group 10431" transform="translate(164.635 748.585)">
      <path id="Path_2057" data-name="Path 2057" d="M47.358,48.283H70.009a.925.925,0,1,0,0-1.849H47.358a.925.925,0,0,0,0,1.849Z" fill="#e86365"/>
      <path id="Path_2058" data-name="Path 2058" d="M47.358,53.83H70.009a.925.925,0,1,0,0-1.849H47.358a.925.925,0,0,0,0,1.849Z" fill="#e86365"/>
      <path id="Path_2059" data-name="Path 2059" d="M73.873,87.083a.925.925,0,0,0-.593.694l-.441,2.277L71,85.067a3.486,3.486,0,0,1-1.013-.084,3.422,3.422,0,0,1-.813.477l2.587,7c.356.967.945,1.122,1.286,1.122h.033a1.253,1.253,0,0,0,1.158-1.037c.009-.031.017-.061.023-.092l.544-2.808L77.1,91.526a.605.605,0,0,0,.07.052,1.261,1.261,0,0,0,1.576.072c.263-.207.65-.7.281-1.7l-2.9-7.858a3.131,3.131,0,0,1-.849.962,3.21,3.21,0,0,1-.632.366L76.6,88.734l-1.83-1.5A.927.927,0,0,0,73.873,87.083Z" fill="#e86365"/>
      <path id="Path_2060" data-name="Path 2060" d="M77.966,80.359a3.121,3.121,0,0,1-.961.847l7.857,2.9a2.188,2.188,0,0,0,.758.152,1.153,1.153,0,0,0,.945-.433,1.262,1.262,0,0,0-.073-1.577c-.016-.023-.033-.047-.051-.069l-1.878-2.295,2.808-.544a.909.909,0,0,0,.09-.022A1.255,1.255,0,0,0,88.5,78.162c.01-.335-.122-.951-1.122-1.319l-7-2.587a3.432,3.432,0,0,1-.48.816,3.423,3.423,0,0,1,.1,1.013l4.977,1.839-2.277.441a.925.925,0,0,0-.539,1.493l1.5,1.831-5.315-1.963A3.177,3.177,0,0,1,77.966,80.359Z" fill="#e86365"/>
      <path id="Path_2061" data-name="Path 2061" d="M47.358,59.377H64.909a3.143,3.143,0,0,1,1.372-.428c.065-.005.158-.008.223-.008a3.243,3.243,0,0,1,1.617.436h.091a3.315,3.315,0,0,1,1.2-.229,3.2,3.2,0,0,1,.669.071,2.9,2.9,0,0,1,.282.087.924.924,0,0,0-.355-1.778H47.358a.924.924,0,0,0,0,1.849Z" fill="#e86365"/>
      <path id="Path_2062" data-name="Path 2062" d="M47.358,65.387h8.616A3.149,3.149,0,0,1,57.3,63.538H47.358a.925.925,0,0,0,0,1.849Z" fill="#e86365"/>
      <path id="Path_2063" data-name="Path 2063" d="M47.358,70.934h6.574a3.3,3.3,0,0,1,.644-1.365,3.6,3.6,0,0,1-.084-.484H47.358a.924.924,0,0,0,0,1.849Z" fill="#e86365"/>
      <path id="Path_2064" data-name="Path 2064" d="M47.358,76.944h7.731c0-.033,0-.067.006-.1a3.232,3.232,0,0,1-.961-1.678c0-.024-.008-.048-.013-.072H47.358a.924.924,0,0,0,0,1.849Z" fill="#e86365"/>
      <path id="Path_2065" data-name="Path 2065" d="M47.358,82.491H58.811a3.127,3.127,0,0,1-1.791-1.849H47.358a.924.924,0,0,0,0,1.849Z" fill="#e86365"/>
      <path id="Path_2066" data-name="Path 2066" d="M69.034,34.623a.924.924,0,0,0-.585-.208h-25.9A3.221,3.221,0,0,0,39.5,37.782V90.218a3.221,3.221,0,0,0,3.044,3.367H70.235a4.524,4.524,0,0,1-.213-.484l-.5-1.365H42.544a1.4,1.4,0,0,1-1.195-1.518V37.782a1.4,1.4,0,0,1,1.195-1.518H66.6v7.4a.925.925,0,0,0,.925.925h8.494V62.32a3.168,3.168,0,0,1,.7.522,3.247,3.247,0,0,1,.893,1.716c.086.044.173.1.26.153V42.273a.923.923,0,0,0-.34-.716Zm6.985,8.112h-7.57v-6.2l7.57,6.179Z" fill="#e86365"/>
      <path id="Path_2067" data-name="Path 2067" d="M78.53,69.866a1.937,1.937,0,0,0-1.093-1.2l-.158-.092c.019-.058.04-.119.057-.168A1.61,1.61,0,0,0,76,65.947c-.054-.013-.119-.029-.181-.046,0-.059,0-.121.007-.173a1.625,1.625,0,0,0-2-2l-.173.007c-.016-.061-.032-.127-.045-.18a1.611,1.611,0,0,0-2.463-1.338c-.049.018-.11.038-.167.057-.033-.053-.066-.111-.093-.158a1.611,1.611,0,0,0-2.74-.591c-.043.031-.1.069-.147.1-.046-.041-.093-.086-.132-.123a1.611,1.611,0,0,0-2.795.2c-.033.042-.074.094-.114.142l-.158-.081a1.612,1.612,0,0,0-2.629.973l-.07.172-.173-.032a1.611,1.611,0,0,0-2.248,1.672c-.005.057-.012.128-.02.194-.066.008-.137.015-.194.02a1.93,1.93,0,0,0-1.483.627,1.95,1.95,0,0,0-.19,1.621c.01.051.022.113.032.173l-.17.069a1.612,1.612,0,0,0-.974,2.629c.024.046.054.1.081.158-.048.04-.1.081-.142.114a1.612,1.612,0,0,0-.2,2.8c.037.038.081.086.123.131-.035.051-.072.1-.1.147a1.611,1.611,0,0,0,.591,2.74l.158.093c-.019.058-.04.119-.057.168a1.61,1.61,0,0,0,1.338,2.463l.18.045c0,.06-.005.122-.007.173a1.625,1.625,0,0,0,2,2l.173-.007c.016.062.032.127.045.181a1.611,1.611,0,0,0,2.463,1.337c.05-.017.11-.038.168-.056.032.053.065.11.092.157a1.612,1.612,0,0,0,2.74.592c.043-.031.1-.069.147-.1.046.041.093.086.132.123a2.023,2.023,0,0,0,1.36.718c.031,0,.063,0,.1,0a1.937,1.937,0,0,0,1.339-.912c.034-.042.074-.094.114-.142.055.027.112.057.159.081A1.611,1.611,0,0,0,72.3,81.9c.02-.051.045-.113.07-.171l.173.032a1.611,1.611,0,0,0,2.247-1.673c.006-.057.013-.128.02-.194.066-.008.137-.014.194-.02a1.926,1.926,0,0,0,1.483-.626,1.947,1.947,0,0,0,.19-1.621c-.01-.051-.022-.114-.032-.173.058-.025.12-.05.171-.07a1.61,1.61,0,0,0,.973-2.628l-.081-.159c.049-.04.1-.08.142-.113a1.612,1.612,0,0,0,.2-2.8c-.037-.039-.082-.086-.124-.132l.1-.147A1.942,1.942,0,0,0,78.53,69.866Zm-1.823,3.165a1.708,1.708,0,0,0-.738,2.3,1.666,1.666,0,0,0,.178.276l.023.046-.042.016a1.708,1.708,0,0,0-1.358,2,1.8,1.8,0,0,0,.091.312l.01.054-.041,0a1.725,1.725,0,0,0-1.881,1.552,1.809,1.809,0,0,0,0,.329l0,.042-.054-.01a2.069,2.069,0,0,0-1.447.086,2.1,2.1,0,0,0-.862,1.181l-.017.042-.045-.023a1.707,1.707,0,0,0-2.4.283,1.728,1.728,0,0,0-.177.276l-.031.038-.036-.034a2.089,2.089,0,0,0-1.271-.714c-.033,0-.066,0-.1,0a2.205,2.205,0,0,0-1.26.53l-.041.03-.024-.041a1.707,1.707,0,0,0-2.467-.923l-.049.017-.011-.042a2.106,2.106,0,0,0-.685-1.3,2.071,2.071,0,0,0-1.418-.29l-.065,0,0-.066a2.077,2.077,0,0,0-.291-1.418,2.106,2.106,0,0,0-1.295-.685l-.042-.011.017-.049a1.708,1.708,0,0,0-.625-2.332,1.726,1.726,0,0,0-.3-.135l-.042-.024.03-.042a1.706,1.706,0,0,0-.187-2.628l-.035-.037.038-.03a1.707,1.707,0,0,0,.738-2.3,1.666,1.666,0,0,0-.178-.276L58.3,68.99l.042-.017a1.708,1.708,0,0,0,1.267-2.309l-.01-.053.042,0a1.724,1.724,0,0,0,1.88-1.552,1.8,1.8,0,0,0,0-.328l0-.042.054.01a2.072,2.072,0,0,0,1.446-.086,2.094,2.094,0,0,0,.862-1.181l.017-.042.046.023a1.708,1.708,0,0,0,2.575-.559l.03-.039.036.035a1.707,1.707,0,0,0,2.629.187L69.262,63l.024.041a1.708,1.708,0,0,0,2.17,1.058,1.739,1.739,0,0,0,.3-.136l.048-.017.011.042a2.1,2.1,0,0,0,.685,1.3,2.072,2.072,0,0,0,1.418.291l.066,0,0,.066a2.077,2.077,0,0,0,.291,1.417,2.1,2.1,0,0,0,1.3.686l.042.01-.018.05a1.708,1.708,0,0,0,.923,2.467l.041.024-.03.041a1.708,1.708,0,0,0,.188,2.629l.034.036Z" fill="#e86365"/>
      <path id="Path_2068" data-name="Path 2068" d="M67.236,66.311h0a6.009,6.009,0,1,0,6.009,6.009A6.009,6.009,0,0,0,67.236,66.311Zm2.942,8.952a4.16,4.16,0,1,1,0-5.884A4.161,4.161,0,0,1,70.178,75.263Z" fill="#e86365"/>
    </g>
  </g>
</svg>
