<svg xmlns="http://www.w3.org/2000/svg" width="74" height="74" viewBox="0 0 74 74">
  <g id="Group_10428" data-name="Group 10428" transform="translate(-200 -783)">
    <circle id="Ellipse_36" data-name="Ellipse 36" cx="32" cy="32" r="32" transform="translate(210 793)" fill="#fff5e4"/>
    <g id="Group_10425" data-name="Group 10425" transform="translate(199 782)">
      <rect id="Rectangle_3421" data-name="Rectangle 3421" width="2" height="2" transform="translate(5 5)" fill="#e86365"/>
      <rect id="Rectangle_3422" data-name="Rectangle 3422" width="2" height="2" transform="translate(9 5)" fill="#e86365"/>
      <rect id="Rectangle_3423" data-name="Rectangle 3423" width="2" height="2" transform="translate(12.6 5)" fill="#e86365"/>
      <path id="Path_2041" data-name="Path 2041" d="M55.194,24.226V1H1V49.387H28.1V61H61V24.226ZM53.258,2.935V8.742H2.935V2.935ZM2.935,47.452V10.677H53.258V24.226H34.47L28.1,30.6v5.239H9.71a4.839,4.839,0,0,0,0,9.677H28.1v1.935Zm13.548-3.871V41.645H33.9v1.935Zm-6.774,0a2.9,2.9,0,1,1,0-5.806h.968v5.806Zm2.9-5.806h1.935v5.806H12.613Zm23.226.429,5.529,2.073a.429.429,0,0,1,0,.8l-5.528,2.073ZM33.9,39.71H16.484V37.774H33.9Zm0-12.18v2.5H31.4ZM59.065,59.065H30.032V45.516h5.014l7-2.625a2.365,2.365,0,0,0,0-4.428l-7-2.625H30.032V31.968h5.806V26.161H59.065Z" fill="#e86365"/>
      <rect id="Rectangle_3424" data-name="Rectangle 3424" width="20" height="2" transform="translate(37 28.067)" fill="#e86365"/>
      <rect id="Rectangle_3425" data-name="Rectangle 3425" width="20" height="2" transform="translate(37 31.933)" fill="#e86365"/>
      <rect id="Rectangle_3426" data-name="Rectangle 3426" width="12" height="2" transform="translate(45 35.8)" fill="#e86365"/>
      <rect id="Rectangle_3427" data-name="Rectangle 3427" width="12" height="2" transform="translate(45 39.667)" fill="#e86365"/>
      <rect id="Rectangle_3428" data-name="Rectangle 3428" width="12" height="2" transform="translate(45 43.533)" fill="#e86365"/>
      <rect id="Rectangle_3429" data-name="Rectangle 3429" width="26" height="2" transform="translate(31 47.4)" fill="#e86365"/>
      <rect id="Rectangle_3430" data-name="Rectangle 3430" width="26" height="2" transform="translate(31 51)" fill="#e86365"/>
      <rect id="Rectangle_3431" data-name="Rectangle 3431" width="2" height="2" transform="translate(55 55)" fill="#e86365"/>
      <rect id="Rectangle_3432" data-name="Rectangle 3432" width="22" height="2" transform="translate(31 55)" fill="#e86365"/>
      <path id="Path_2042" data-name="Path 2042" d="M27,13H5V23H27Zm-2,8H7V15H25Z" transform="translate(0 -0.462)" fill="#e86365"/>
      <path id="Path_2043" data-name="Path 2043" d="M27,25H5V35H27Zm-2,8H7V27H25Z" transform="translate(0 -0.923)" fill="#e86365"/>
    </g>
  </g>
</svg>
