<svg xmlns="http://www.w3.org/2000/svg" width="64" height="64" viewBox="0 0 64 64">
  <g id="Group_10428" data-name="Group 10428" transform="translate(-209 -793)">
    <circle id="Ellipse_36" data-name="Ellipse 36" cx="32" cy="32" r="32" transform="translate(209 793)" fill="#fff"/>
    <g id="Group_10587" data-name="Group 10587" transform="translate(-108.755 545.11)">
      <path id="Path_2111" data-name="Path 2111" d="M350.47,270.59h2.561v3.494h-3.494v-2.561a.933.933,0,0,1,.933-.933Z"/>
      <path id="Path_2112" data-name="Path 2112" d="M349.538,276.179h3.494v3.492H350.47a.933.933,0,0,1-.933-.934Z"/>
      <path id="Path_2113" data-name="Path 2113" d="M358.995,271.523v2.562H355.5v-3.494h2.559a.931.931,0,0,1,.933.933Z"/>
      <path id="Path_2114" data-name="Path 2114" d="M355.5,276.179h3.492v2.558a.933.933,0,0,1-.933.934H355.5Z"/>
      <path id="Path_2115" data-name="Path 2115" d="M376.822,270.4c-.554-.416-1.1-.831-1.623-1.237-.862-.682-1.723-1.337-2.584-1.98l-7.721-5.938-1.505-1.169c-2.337-1.791-4.682-3.593-7.019-5.385a4.079,4.079,0,0,0-1.218-.653.14.14,0,0,0-.049-.009,2.688,2.688,0,0,0-.367-.1c-.079-.011-.138-.011-.216-.021a1.141,1.141,0,0,0-.258-.019,1.218,1.218,0,0,0-.257.019c-.059.01-.148.01-.207.02a2.41,2.41,0,0,0-.367.1c-.01,0-.04,0-.049.009a3.94,3.94,0,0,0-1.208.653c-2.861,2.178-5.7,4.366-8.553,6.553v-2.435a1.052,1.052,0,0,0-1.059-1.049h-4.02a1.061,1.061,0,0,0-1.059,1.059c0,2.385.03,4.415-.03,6.435a2.014,2.014,0,0,1-.455,1.088c-1.217.94-2.435,1.872-3.662,2.821-.535.406-1.088.822-1.613,1.237a2.387,2.387,0,0,0-1.178,2.03,1.985,1.985,0,0,0,.356,1.227,2.812,2.812,0,0,0,3.069,1.019,3.886,3.886,0,0,0,.772-.346v8.385c.653-.02,1.306-.03,1.97-.03.465,0,.951,0,1.465.019V271.994a1.228,1.228,0,0,1,.04-.257q7.5-5.717,14.948-11.463l.514-.376a1.53,1.53,0,0,1,.584-.208,1.5,1.5,0,0,1,.584.208l.515.376q7.47,5.762,14.958,11.463c.009.089.03.178.03.257v5.663h.009V290.18c1.119-.455,2.267-.911,3.425-1.347l0-14.5a4.284,4.284,0,0,0,.781.347,2.793,2.793,0,0,0,3.059-1.02,1.985,1.985,0,0,0,.367-1.227,2.456,2.456,0,0,0-1.171-2.03Z"/>
      <path id="Path_2116" data-name="Path 2116" d="M378.8,290.1a4.827,4.827,0,0,0-2.183.309c-4.1,1.488-8,3.224-12.083,4.757a1.38,1.38,0,0,0-.566.315,5.1,5.1,0,0,1-4.034,1.777c-2.539.03-5.078.115-7.618.176-1.722.041-3.445.085-5.168.116a1.138,1.138,0,0,1-1.011-.985c-.028-.51.319-.683.76-.727.176-.017.352-.03.529-.035l6.425-.161c2.253-.057,4.507-.072,6.756-.183a2.784,2.784,0,1,0-.265-5.562,52.605,52.605,0,0,1-8.316-.7c-3.083-.477-4.583-2.056-7.574-3.017-4.608-1.481-9.326-.944-14.085-.847l-.024-.993c-.027-1.047-.535-1.5-1.6-1.478q-4.17.1-8.34.2c-.171,0-.341.026-.651.05.155,1.481.261,2.926.465,4.357a36.551,36.551,0,0,0,5.532,14.793,1.017,1.017,0,0,0,.715.4c.947.025,1.9-.018,2.845-.051a1.345,1.345,0,0,0,1.435-1.523q-.009-.408-.02-.816l.013,0c2.139.608,4.268,1.253,6.4,1.87,3.978,1.148,7.933,2.388,11.946,3.4,3.328.836,6.684.935,9.848-.808q10.056-5.535,20.11-11.071a2.737,2.737,0,0,0,.86-.8,1.738,1.738,0,0,0-1.11-2.762Z" fill="#e86365"/>
    </g>
  </g>
</svg>
