<svg xmlns="http://www.w3.org/2000/svg" width="37.455" height="37.129" viewBox="0 0 37.455 37.129">
  <g id="Group_10147" data-name="Group 10147" transform="translate(-0.081 -0.184)">
    <path id="Path_1971" data-name="Path 1971" d="M1.673,37.313a.791.791,0,0,1-.556-.229l-.6-.6a.781.781,0,0,1-.229-.52l-.2-4.516a.791.791,0,0,1,.583-.8l2.514-.669.256-2.016a.782.782,0,0,1,.225-.456L4.99,26.176a.776.776,0,0,1,.548-.229l1.51-.014.112-1.654a.786.786,0,0,1,.69-.726l1.873-.226.116-1.73a.786.786,0,0,1,.7-.727l1.857-.2.229-1.9A.781.781,0,0,1,13,18.2l1.094-.668a2.056,2.056,0,0,1,0-2.655c.478-.493.875-.891,1.133-1.145A10.532,10.532,0,0,1,15,11.451a11.265,11.265,0,1,1,8.736,10.981,3.075,3.075,0,0,1-2.36,1.5,2.224,2.224,0,0,1-1.075-.286C17.852,26.1,6.907,37.041,6.907,37.041a.777.777,0,0,1-.55.229l-4.677.039Zm.168-1.728L2,35.739l4.027-.033c1.769-1.769,13.27-13.27,13.644-13.643a.789.789,0,0,1,1.089-.019.972.972,0,0,0,.621.319c.517,0,1.092-.8,1.29-1.191a.785.785,0,0,1,.918-.4,9.7,9.7,0,1,0-7.012-9.322,8.571,8.571,0,0,0,.281,2.329.784.784,0,0,1-.215.765c-.006,0-.584.561-1.416,1.422-.174.181.233.853.6,1.216a.794.794,0,0,1,.225.649.781.781,0,0,1-.371.577l-1.529.932-.261,2.145a.786.786,0,0,1-.7.688l-1.823.193-.116,1.72a.786.786,0,0,1-.69.726l-1.873.226-.116,1.73a.787.787,0,0,1-.776.732l-1.917.019-.916.91L4.669,30.7a.787.787,0,0,1-.577.66L1.681,32Z" transform="translate(0 0)" fill="#7b7b7b"/>
    <path id="Path_1972" data-name="Path 1972" d="M24.857,17.351a.848.848,0,0,1-.6-.247L13.156,6a.848.848,0,0,1,0-1.2,8.7,8.7,0,0,1,12.3,12.3A.836.836,0,0,1,24.857,17.351ZM14.983,5.439l9.836,9.838a7.007,7.007,0,0,0-9.836-9.838Z" transform="translate(6.028 1.429)" fill="#7b7b7b"/>
    <path id="Path_1973" data-name="Path 1973" d="M1.286,31.529a.844.844,0,0,1-.6-1.441L18.28,12.495a.844.844,0,0,1,1.194,1.194L1.884,31.283A.848.848,0,0,1,1.286,31.529Z" transform="translate(0.248 5.525)" fill="#7b7b7b"/>
  </g>
</svg>
