<svg xmlns="http://www.w3.org/2000/svg" width="37.609" height="34.921" viewBox="0 0 37.609 34.921">
  <g id="Group_10145" data-name="Group 10145" transform="translate(-1.999 -3)">
    <path id="Path_1964" data-name="Path 1964" d="M39.608,9.044a6.044,6.044,0,1,0-6.716,5.976V32.549H29.534a.672.672,0,0,0-.672.672v3.358H25.8a2.657,2.657,0,0,0,.373-1.343V33.823a3.362,3.362,0,0,0,2.686-3.289V27.848a3.35,3.35,0,0,0-.983-2.36c.251-.121.508-.234.749-.364A.672.672,0,0,0,28,23.938c-.537.286-1.107.541-1.69.783l-2.7-5.042a3.682,3.682,0,0,0-3.277-1.9h-9.8A3.682,3.682,0,0,0,7.255,19.68L4.6,24.638c-.559-.22-1.107-.455-1.636-.712a.671.671,0,0,0-.588,1.206c.22.107.453.2.677.3A3.348,3.348,0,0,0,2,27.848v2.686a3.361,3.361,0,0,0,2.686,3.289v1.412a2.657,2.657,0,0,0,.373,1.343H2.672a.672.672,0,1,0,0,1.343H33.564a.672.672,0,0,0,.672-.672V15.02A6.03,6.03,0,0,0,39.608,9.044ZM10.059,33.892H20.8v1.343a2.657,2.657,0,0,0,.373,1.343H9.686a2.657,2.657,0,0,0,.373-1.343Zm12.088,1.343V33.892h2.686v1.343a1.343,1.343,0,1,1-2.686,0ZM8.437,20.316a2.377,2.377,0,0,1,2.1-1.2h9.8a2.348,2.348,0,0,1,2.1,1.2L25.043,25.2a31.435,31.435,0,0,1-19.17-.1ZM3.343,30.534V27.848A2.011,2.011,0,0,1,4.5,26.035a32.029,32.029,0,0,0,11.247,2A29.377,29.377,0,0,0,26.491,26.1a2.007,2.007,0,0,1,1.029,1.75v2.686a2.017,2.017,0,0,1-2.015,2.015H5.358A2.017,2.017,0,0,1,3.343,30.534Zm2.686,4.7V33.892H8.716v1.343a1.343,1.343,0,1,1-2.686,0Zm24.176,1.343V33.892h2.015v2.686Zm3.358-22.833a4.7,4.7,0,1,1,4.7-4.7A4.706,4.706,0,0,1,33.564,13.745Z" fill="#7b7b7b"/>
    <path id="Path_1965" data-name="Path 1965" d="M8.029,23.015a2.015,2.015,0,1,0-2.015,2.015A2.017,2.017,0,0,0,8.029,23.015Zm-2.686,0a.672.672,0,1,1,.672.672A.674.674,0,0,1,5.343,23.015Z" transform="translate(0.686 6.176)" fill="#7b7b7b"/>
    <path id="Path_1966" data-name="Path 1966" d="M19.015,25.029A2.015,2.015,0,1,0,17,23.015,2.017,2.017,0,0,0,19.015,25.029Zm0-2.686a.672.672,0,1,1-.672.672A.674.674,0,0,1,19.015,22.343Z" transform="translate(5.147 6.176)" fill="#7b7b7b"/>
    <path id="Path_1967" data-name="Path 1967" d="M8.672,23.843h9.4a.672.672,0,1,0,0-1.343h-9.4a.672.672,0,1,0,0,1.343Z" transform="translate(2.059 6.691)" fill="#7b7b7b"/>
    <path id="Path_1968" data-name="Path 1968" d="M10.295,15.56l-2.732,3.6a.672.672,0,0,0,.129.942.686.686,0,0,0,.942-.129l2.732-3.6a.672.672,0,0,0-1.07-.811Z" transform="translate(1.862 4.219)" fill="#7b7b7b"/>
    <path id="Path_1969" data-name="Path 1969" d="M9.069,16.353A.671.671,0,0,0,8,15.543l-1.058,1.4a.67.67,0,0,0,.13.94.683.683,0,0,0,.94-.13Z" transform="translate(1.648 4.213)" fill="#7b7b7b"/>
  </g>
</svg>
