<svg xmlns="http://www.w3.org/2000/svg" width="71" height="64" viewBox="0 0 71 64">
  <g id="Group_10428" data-name="Group 10428" transform="translate(-203 -793)">
    <circle id="Ellipse_36" data-name="Ellipse 36" cx="32" cy="32" r="32" transform="translate(210 793)" fill="#fff"/>
    <path id="Path_2091" data-name="Path 2091" d="M359.6,287.054a10.537,10.537,0,1,0-2.989,2.989l6.226,6.973.214.214a2.646,2.646,0,0,0,3.523-3.949Zm-8.788-12.169a2.846,2.846,0,1,1-2.848,2.846,2.855,2.855,0,0,1,2.848-2.846Zm4.483,10.852a.76.76,0,0,1-.782.747h-7.4a.784.784,0,0,1-.782-.747v-1.175a4.552,4.552,0,0,1,1.78-3.594,4.247,4.247,0,0,0,2.7.961,4.082,4.082,0,0,0,2.669-.961,5.35,5.35,0,0,1,.463.428,4.43,4.43,0,0,1,1.317,3.166v1.175Z" transform="translate(-93.457 539.689)" fill="#e86365"/>
    <g id="Group_10585" data-name="Group 10585" transform="translate(-122.353 449.75)">
      <path id="Path_2092" data-name="Path 2092" d="M348.928,358.482l12.859,4.593v3.531h-5.358v2.143h5.358v2.143h-5.358v2.144h5.358v2.143h-5.358v2.143h5.358v2.143h2.144V362.32a1.073,1.073,0,0,0-.712-1.01l-15-5.358a1.073,1.073,0,0,0-1.432,1.01v7.5h2.143Z" fill="#171b2a"/>
      <path id="Path_2093" data-name="Path 2093" d="M371.432,382.68a1.072,1.072,0,0,0-1.072-1.072H357.5a1.072,1.072,0,0,0-1.072,1.072v11.787h-3.214V366.606a1.073,1.073,0,0,0-1.367-1.031l-15,4.287a1.071,1.071,0,0,0-.777,1.03v7.5h2.143V371.7l12.859-3.674v3.937h-5.357v2.143h5.357v2.143h-3.214v2.143h3.214v2.143h-3.214v2.144h3.214v2.143h-3.214v2.143h3.214v2.143h-3.214v2.143h3.214v3.215h-5.357v-15a1.073,1.073,0,0,0-1.3-1.048l-15,3.215a1.071,1.071,0,0,0-.847,1.048v11.787h-3.215v2.143h49.294v-2.143h-3.215Zm-12.859,1.071h10.716v10.716H358.573Zm-27.862-.205,12.859-2.755v13.676H330.711Z" fill="#171b2a"/>
      <path id="Path_2094" data-name="Path 2094" d="M338.212,384.823h3.215v2.143h-3.215Z" fill="#171b2a"/>
      <path id="Path_2095" data-name="Path 2095" d="M360.716,385.894h6.429v2.144h-6.429Z" fill="#171b2a"/>
      <path id="Path_2096" data-name="Path 2096" d="M332.854,384.823h3.215v2.143h-3.215Z" fill="#171b2a"/>
    </g>
  </g>
</svg>
