<svg xmlns="http://www.w3.org/2000/svg" width="27.097" height="40" viewBox="0 0 27.097 40">
  <g id="Group_10149" data-name="Group 10149" transform="translate(-12 -1)">
    <path id="Path_2016" data-name="Path 2016" d="M39.1,1H12V38.419h1.355V41H18.1V38.419H33V41h4.742V38.419H39.1ZM17.419,2.29H33.677V22.935a7.951,7.951,0,0,1-8.129,7.742,7.951,7.951,0,0,1-8.129-7.742ZM16.742,39.71H14.71v-1.29h2.032Zm14.9-2.581v-1.29H30.29v1.29H28.935v-1.29H27.581v1.29H26.226v-1.29H24.871v1.29H23.516v-1.29H22.161v1.29H20.806v-1.29H19.452v1.29H18.1V34.548H33v2.581Zm4.742,2.581H34.355v-1.29h2.032Zm1.355-2.581H34.355V33.258H16.742v3.871H13.355V2.29h2.71V22.935a9.277,9.277,0,0,0,9.484,9.032,9.277,9.277,0,0,0,9.484-9.032V2.29h2.71Z" fill="#7b7b7b"/>
    <path id="Path_2017" data-name="Path 2017" d="M30.065,37.129A4.065,4.065,0,1,0,26,33.065,4.069,4.069,0,0,0,30.065,37.129Zm0-6.774a2.71,2.71,0,1,1-2.71,2.71A2.712,2.712,0,0,1,30.065,30.355Z" transform="translate(-4.516 -10.152)" fill="#7b7b7b"/>
    <rect id="Rectangle_3373" data-name="Rectangle 3373" width="6" height="1" transform="translate(22.548 15.268)" fill="#7b7b7b"/>
    <rect id="Rectangle_3374" data-name="Rectangle 3374" width="6" height="1" transform="translate(22.548 11.463)" fill="#7b7b7b"/>
    <rect id="Rectangle_3375" data-name="Rectangle 3375" width="6" height="1" transform="translate(22.548 8)" fill="#7b7b7b"/>
  </g>
</svg>
