<svg xmlns="http://www.w3.org/2000/svg" width="73.534" height="74" viewBox="0 0 73.534 74">
  <g id="Group_10428" data-name="Group 10428" transform="translate(-200.466 -783)">
    <circle id="Ellipse_36" data-name="Ellipse 36" cx="32" cy="32" r="32" transform="translate(210 793)" fill="#fff5e4"/>
    <g id="Group_10429" data-name="Group 10429" transform="translate(-27.847 556.166)">
      <path id="Path_2044" data-name="Path 2044" d="M282.1,253.81a.731.731,0,0,0-.73.73v15.537h-8.216a.731.731,0,0,0-.73.73v6.484a.73.73,0,0,0,1.46,0v-5.753h.994v4.123a.73.73,0,0,0,1.46,0v-4.123h2.578v4.123a.73.73,0,0,0,1.46,0v-4.123h.994v5.753a.73.73,0,1,0,1.46,0V254.54A.73.73,0,0,0,282.1,253.81Z" transform="translate(5.696 6)" fill="#e86365"/>
      <path id="Path_2045" data-name="Path 2045" d="M234.753,252.119h.1a3.658,3.658,0,1,0-.1,0Zm.1-5.856A2.175,2.175,0,0,1,237,248.514a2.15,2.15,0,0,1-2.147,2.146h-.1a2.2,2.2,0,1,1,.1-4.4Z" transform="translate(0 2.114)" fill="#e86365"/>
      <path id="Path_2046" data-name="Path 2046" d="M237.99,270.088h-8.218v-15.54a.729.729,0,0,0-1.459,0V277.3a.729.729,0,1,0,1.459,0v-5.752h.995v4.124a.729.729,0,1,0,1.459,0v-4.124h2.58v4.124a.729.729,0,1,0,1.459,0v-4.124h.995V277.3a.729.729,0,1,0,1.459,0v-6.482A.73.73,0,0,0,237.99,270.088Z" transform="translate(0 6)" fill="#e86365"/>
      <path id="Path_2047" data-name="Path 2047" d="M288.573,229.94H259.946a.807.807,0,0,0-.807.808v11.976h-1.527V241.3a5.184,5.184,0,0,0-5.177-5.182h-5.08a4.887,4.887,0,0,0-4.88,4.884v8.429a3.619,3.619,0,0,0,2.807,3.52V255.8c-.008.016-.027.022-.033.039l-1.875,4.2-2.212.034-3.347-3.563a3.858,3.858,0,0,0-7.038,2.187v10.6a4.113,4.113,0,0,0,4.107,4.111h3.892v.18a.809.809,0,0,0,.807.81h.572l2.119,5.628a2.537,2.537,0,0,0,2.362,1.639,2.528,2.528,0,0,0,2.395-3.329l-1.36-3.937h9.991v4.664l-8.681,8.6a.808.808,0,0,0,.008,1.155l2.186,2.116a.8.8,0,0,0,1.134-.01l5.643-5.683-.013,4.265a.81.81,0,0,0,.809.812H259.7a.81.81,0,0,0,.809-.8l.017-3.771,3.922,4.88a.8.8,0,0,0,.544.3.552.552,0,0,0,.085.006.821.821,0,0,0,.511-.182l2.386-1.945a.812.812,0,0,0,.118-1.135l-7.384-9.164-.039-4.1h10.134l-1.36,3.938a2.528,2.528,0,0,0,2.4,3.319,2.534,2.534,0,0,0,2.362-1.639l2.118-5.619h.573a.809.809,0,0,0,.809-.809v-.19H281.6a4.116,4.116,0,0,0,4.108-4.113v-10.6A3.8,3.8,0,0,0,282.99,255a3.729,3.729,0,0,0-4.25,1.406l-3.427,3.656-2.212-.033-1.87-4.187a.806.806,0,0,0-.738-.479H254.646V247.9h4.493V250.1a.808.808,0,0,0,.807.809h17.286a4.03,4.03,0,0,0,8.016,0h3.325a.81.81,0,0,0,.809-.809V230.748A.809.809,0,0,0,288.573,229.94Zm-49.729,40.235v.007a.8.8,0,0,0-.069.323v1.286h-3.892a2.494,2.494,0,0,1-2.491-2.492v-10.6a2.183,2.183,0,0,1,1.577-2.143,2.248,2.248,0,0,1,2.59.967l3.423,3.656a1.673,1.673,0,0,0,1.208.512l2.712-.042h0l1.417-.021a.58.58,0,0,1,.27.106.364.364,0,0,1,.113.265v.675a.373.373,0,0,1-.374.371h0l-2.75-.022-3.465-.028a1.322,1.322,0,0,1-1.04-.529l-1.87-2.514a.808.808,0,1,0-1.3.966l1.433,1.928.463,5.623a.807.807,0,0,0,.731.738l1.681.155Zm1.062-2.378-1.554-.142-.269-3.257a2.914,2.914,0,0,0,1.007.212l2.232.018Zm5.464,11.874a.942.942,0,0,1-1.585-.213l-1.905-5.06h2.078l1.54,4.456A.9.9,0,0,1,245.37,279.671ZM256.2,282.7l-.006,0-6.47,6.517-1.021-.988,7.7-7.627.84,1.045Zm2.7,6h-1.344l.016-5.09.687-.692.664.826Zm7.431-.647-1.131.922-7.925-9.859V274.4h1.782l.04,4.4a.816.816,0,0,0,.178.5Zm6.36-8.605a.938.938,0,0,1-1.584.211.886.886,0,0,1-.131-.8l1.54-4.457h2.078Zm3.395-6.669h-35.7v-1.466h35.7Zm.481-4.991-1.416-3.17,2.239-.018a2.9,2.9,0,0,0,1-.213l-.268,3.257Zm-1.287-6.114a1.482,1.482,0,0,0,1.217-.51l3.5-3.753a2.243,2.243,0,0,1,4.092,1.273v10.6a2.494,2.494,0,0,1-2.489,2.494H277.7V270.5a.8.8,0,0,0-.071-.325v0l-.37-.827,1.686-.155a.8.8,0,0,0,.731-.738l.463-5.62,1.436-1.931a.809.809,0,0,0-1.3-.966l-1.869,2.514a1.306,1.306,0,0,1-1.038.529l-6.222.05a.385.385,0,0,1-.263-.108.359.359,0,0,1-.111-.264v-.675a.37.37,0,0,1,.112-.267.821.821,0,0,1,.279-.1Zm-5.311-4.7L271.318,260l-.112,0a2.014,2.014,0,0,0-1.44.562,1.973,1.973,0,0,0-.6,1.427v.675a1.977,1.977,0,0,0,.591,1.416,2.062,2.062,0,0,0,1.414.574l2.219-.018,2.262,5.063h-34.82l.294-.657c.008-.014.013-.03.02-.044l1.943-4.351,2.22.018a1.9,1.9,0,0,0,1.42-.575,1.974,1.974,0,0,0,.59-1.416v-.675a1.973,1.973,0,0,0-.6-1.425,1.9,1.9,0,0,0-1.431-.563l-.129,0,1.354-3.032ZM246.9,255.358v-4.012h2.258v4.012Zm3.875,0v-4.012h2.259v4.012Zm3.875-9.072v-4.177a.808.808,0,1,0-1.616,0v7.62H246.9v-7.62a.808.808,0,1,0-1.616,0v9.144a2,2,0,0,1-1.191-1.824V241a3.27,3.27,0,0,1,3.264-3.266h5.08A3.566,3.566,0,0,1,256,241.3v2.235a.809.809,0,0,0,.809.808h4.132a.972.972,0,0,1,0,1.945Zm26.594,6.615a2.435,2.435,0,1,1,2.435-2.437A2.438,2.438,0,0,1,281.239,252.9Zm6.525-3.613H285.1a4.027,4.027,0,0,0-7.72,0H260.753V247.9h.182a2.578,2.578,0,0,0,2.563-2.471l4.132-4.083a.809.809,0,0,0-1.136-1.151l-3.569,3.527a2.54,2.54,0,0,0-1.989-1h-.182V231.556h27.011Z" fill="#e86365"/>
      <path id="Path_2048" data-name="Path 2048" d="M248.1,234.5a3.835,3.835,0,1,0-3.834-3.835A3.839,3.839,0,0,0,248.1,234.5Zm0-6.211a2.376,2.376,0,1,1-2.376,2.376A2.379,2.379,0,0,1,248.1,228.293Z" transform="translate(1.905)" fill="#e86365"/>
      <path id="Path_2049" data-name="Path 2049" d="M272.556,237.85a.729.729,0,0,0-.761.252l-1.654,2.087-2.615-.558a.724.724,0,0,0-.739.278l-1.806,2.428-2.85.546a.73.73,0,0,0,.137,1.446.711.711,0,0,0,.137-.012l3.13-.6a.73.73,0,0,0,.449-.281l1.695-2.281,2.6.555a.727.727,0,0,0,.725-.26l1.638-2.067,2.323.62a.725.725,0,0,0,.746-.235l2.74-3.258v.934a.73.73,0,1,0,1.46,0v-2.928a.717.717,0,0,0-.247-.58l-.015-.007-.007-.01a.829.829,0,0,0-.119-.06.871.871,0,0,0-.126-.063.716.716,0,0,0-.226-.024c-.018,0-.034,0-.051,0a.809.809,0,0,0-.085,0l-2.844.582a.73.73,0,1,0,.292,1.43l.816-.167-2.4,2.859Z" transform="translate(5.696)" fill="#e86365"/>
      <path id="Path_2050" data-name="Path 2050" d="M263.381,234.311h8.936a.729.729,0,1,0,0-1.458h-8.936a.729.729,0,1,0,0,1.458Z" transform="translate(4.349)" fill="#e86365"/>
      <path id="Path_2051" data-name="Path 2051" d="M263.381,237.156h4.468a.729.729,0,1,0,0-1.459h-4.468a.729.729,0,1,0,0,1.459Z" transform="translate(3.956)" fill="#e86365"/>
    </g>
  </g>
</svg>
