<svg xmlns="http://www.w3.org/2000/svg" width="64" height="64" viewBox="0 0 64 64">
  <g id="Group_10428" data-name="Group 10428" transform="translate(-209 -793)">
    <circle id="Ellipse_36" data-name="Ellipse 36" cx="32" cy="32" r="32" transform="translate(209 793)" fill="#fff"/>
    <g id="Group_10588" data-name="Group 10588" transform="translate(-108.681 544.982)">
      <path id="Path_2117" data-name="Path 2117" d="M352.444,269.84a1.606,1.606,0,0,1,.77-2.112l9.665-4.4a13.8,13.8,0,0,1,8.057-.747l10.388,1.722.005,8.877-4.4.532a6.208,6.208,0,0,1-3.816-.765l-4.179-2.372a.364.364,0,0,0-.2-.056l-4.982-.016a1.569,1.569,0,0,1-1.569-1.537l-.01-.532a1.507,1.507,0,0,1,1.518-1.513l7.162-.4-7.158-.442a2.236,2.236,0,0,0-2.116,1.833l-.051.215-7.1,2.56h-.016a1.53,1.53,0,0,1-1.942-.778l0-.016-.007-.024Z" fill="#e86365" fill-rule="evenodd"/>
      <path id="Path_2118" data-name="Path 2118" d="M341.774,261.573a1.064,1.064,0,0,0-1.053,1.085V263.7a1.065,1.065,0,1,0,2.122,0v-1.038a1.065,1.065,0,0,0-1.069-1.085Z" fill="#e86365"/>
      <path id="Path_2119" data-name="Path 2119" d="M341.664,266.9a1.065,1.065,0,0,0-.943,1.085v1.023a1.065,1.065,0,1,0,2.123,0v-1.023a1.066,1.066,0,0,0-1.18-1.085Z" fill="#e86365"/>
      <path id="Path_2120" data-name="Path 2120" d="M343.929,264.766a1.07,1.07,0,1,0,0,2.139h1.038a1.07,1.07,0,0,0,0-2.139Z" fill="#e86365"/>
      <path id="Path_2121" data-name="Path 2121" d="M338.6,264.766a1.07,1.07,0,1,0,0,2.139h1.038a1.07,1.07,0,0,0,0-2.139Z" fill="#e86365"/>
      <path id="Path_2122" data-name="Path 2122" d="M343.176,276.482a1.065,1.065,0,1,1-1.065-1.065A1.065,1.065,0,0,1,343.176,276.482Z" fill="#171b2a"/>
      <path id="Path_2123" data-name="Path 2123" d="M349.363,260.083a1.065,1.065,0,1,1-.312-.753A1.065,1.065,0,0,1,349.363,260.083Z" fill="#171b2a"/>
      <path id="Path_2124" data-name="Path 2124" d="M334.42,270.734a1.066,1.066,0,1,1-1.066-1.065A1.065,1.065,0,0,1,334.42,270.734Z" fill="#171b2a"/>
      <path id="Path_2125" data-name="Path 2125" d="M325.8,269.027a1.065,1.065,0,0,0-1.054,1.085v1.038h0a1.065,1.065,0,1,0,2.123,0v-1.038h0a1.064,1.064,0,0,0-1.069-1.085Z" fill="#171b2a"/>
      <path id="Path_2126" data-name="Path 2126" d="M325.686,274.359a1.065,1.065,0,0,0-.943,1.085v1.039h0a1.065,1.065,0,1,0,2.122,0v-1.038h0a1.064,1.064,0,0,0-1.179-1.085Z" fill="#171b2a"/>
      <path id="Path_2127" data-name="Path 2127" d="M327.841,272.235a1.065,1.065,0,0,0,.11,2.123h1.038a1.065,1.065,0,1,0,0-2.123h-1.038a1.017,1.017,0,0,0-.11,0Z" fill="#171b2a"/>
      <path id="Path_2128" data-name="Path 2128" d="M322.526,272.235a1.065,1.065,0,0,0,.094,2.123h1.038a1.065,1.065,0,1,0,0-2.123h-1.132Z" fill="#171b2a"/>
      <path id="Path_2129" data-name="Path 2129" d="M328.985,263.707a1.065,1.065,0,1,1-1.065-1.065A1.064,1.064,0,0,1,328.985,263.707Z" fill="#171b2a"/>
      <path id="Path_2130" data-name="Path 2130" d="M375.855,280.751a1.065,1.065,0,1,1-1.065-1.066A1.064,1.064,0,0,1,375.855,280.751Z" fill="#171b2a"/>
      <path id="Path_2131" data-name="Path 2131" d="M336.366,281.212a7.33,7.33,0,0,0-1.289.064l-10.049,1.8-6.217.072-.129,10.586s8.54,1.06,12.7,2.13c4.961,1.277,9.521,4.833,14.5,5.093A28.465,28.465,0,0,0,358.3,298.5s11.017-4.966,16.5-7.5a2.548,2.548,0,0,0,1.165-3.291,2.515,2.515,0,0,0-3.037-1.165c-2.761,1.049-14.056,5.064-14.056,5.064l-1.581,0c0,.049,0,.1,0,.146a3.9,3.9,0,0,1-1.552,2.8,4.964,4.964,0,0,1-3.334.782h0a1.486,1.486,0,0,1-.163-.024l-11.634-2.131a1.588,1.588,0,0,1-1.118-.785,1.611,1.611,0,0,1-.105-1.37l1.51.578,11.634,2.131c1.987.155,3.048-.744,3.175-2.131a2.992,2.992,0,0,0-2.118-3.195l-8.464-3.2-5.088-2.93a7.93,7.93,0,0,0-3.671-1.06Z" fill="#171b2a" fill-rule="evenodd"/>
      <path id="Path_2132" data-name="Path 2132" d="M368.385,284.175a2.442,2.442,0,0,0-.886.171l-10.969,4.369c.052.081.117.151.162.233a4.369,4.369,0,0,1,.425,1.132l1.439-.073c.284-.1,8.15-2.911,12.026-4.331-.022-.049-.017-.107-.042-.158h0a2.4,2.4,0,0,0-2.152-1.34Z" fill="#171b2a" fill-rule="evenodd"/>
      <path id="Path_2133" data-name="Path 2133" d="M363.1,282.007a2.26,2.26,0,0,0-.882.188l-9.521,4.148,1.452.55a5.584,5.584,0,0,1,1.14.6l10.008-3.986c-.021-.049-.013-.1-.038-.15h-.005a2.409,2.409,0,0,0-2.155-1.353Z" fill="#171b2a" fill-rule="evenodd"/>
      <path id="Path_2134" data-name="Path 2134" d="M356.585,280.749a2.207,2.207,0,0,0-.878.192l-7.927,3.545,2.763,1.044L358.657,282a2.4,2.4,0,0,0-2.072-1.249Z" fill="#171b2a" fill-rule="evenodd"/>
    </g>
  </g>
</svg>
